<svg width="12" height="12" viewBox="0 0 12 12" fill="none" xmlns="http://www.w3.org/2000/svg">
<path d="M11.1164 0.642221C10.8801 0.403215 10.5852 0.230272 10.2613 0.140606C9.9373 0.0509391 9.59548 0.0476767 9.26986 0.131143L3.77051 1.50614C3.31845 1.61809 2.90551 1.85126 2.57619 2.18054C2.24688 2.50981 2.01367 2.9227 1.90171 3.37471L0.525862 8.8794C0.357501 9.54737 0.548086 10.2376 1.03633 10.7257C1.40673 11.09 1.89497 11.292 2.40006 11.292C2.55764 11.292 2.71994 11.2752 2.87753 11.2308L8.38293 9.85577C8.835 9.74382 9.24794 9.51064 9.57725 9.18137C9.90657 8.8521 10.1398 8.43921 10.2517 7.9872L11.6262 2.48251C11.7101 2.15795 11.7071 1.81703 11.6175 1.49401C11.5279 1.17098 11.3555 0.877215 11.1164 0.642221ZM6.07706 7.85792C5.49967 7.85756 4.94601 7.62811 4.53767 7.21995C4.12933 6.81178 3.89968 6.25827 3.89914 5.68095C3.89968 5.10363 4.12933 4.55012 4.53767 4.14196C4.94601 3.7338 5.49967 3.50435 6.07706 3.50399C6.65434 3.50453 7.20782 3.73405 7.61601 4.1422C8.02421 4.55034 8.25377 5.10375 8.2543 5.68095C8.25377 6.25816 8.02421 6.81157 7.61601 7.21971C7.20782 7.62785 6.65434 7.85738 6.07706 7.85792Z" fill="white"/>
</svg>
