<svg width="13" height="13" viewBox="0 0 13 13" fill="none" xmlns="http://www.w3.org/2000/svg">
<g clip-path="url(#clip0_2247_260)">
<path fill-rule="evenodd" clip-rule="evenodd" d="M7.75959 12.347H4.39323C1.58794 12.347 0.46582 11.2249 0.46582 8.41962V5.05327C0.46582 2.24797 1.58794 1.12585 4.39323 1.12585H7.75959C10.5649 1.12585 11.687 2.24797 11.687 5.05327V8.41962C11.687 11.2249 10.5649 12.347 7.75959 12.347ZM4.29972 10.0781C4.6469 10.0395 4.96736 9.87336 5.1989 9.61182C5.43045 9.35028 5.55656 9.01204 5.55276 8.66275C5.55405 8.47928 5.51828 8.29745 5.44758 8.12815C5.37687 7.95885 5.2727 7.80558 5.14131 7.67753C4.92263 7.45799 4.63808 7.31611 4.33114 7.27357C4.26232 7.26608 4.18751 7.2601 4.12542 7.26608C3.45814 7.27955 2.82825 7.75982 2.74746 8.51388L2.65395 9.36145C2.64186 9.47027 2.6543 9.58041 2.69035 9.68379C2.7264 9.78718 2.78514 9.88117 2.86227 9.95887C2.9394 10.0366 3.03296 10.096 3.13607 10.1328C3.23918 10.1697 3.34923 10.1829 3.45813 10.1716L4.29972 10.0781ZM7.01151 7.51594C7.99 6.55616 9.0186 5.08469 9.46745 3.96257C9.54899 3.76358 9.48615 3.56983 9.36197 3.43293C9.29428 3.36652 9.2088 3.32115 9.11587 3.3023C9.02294 3.28345 8.92653 3.29192 8.83832 3.3267C7.70947 3.78228 6.22603 4.82286 5.26624 5.80808C5.7014 5.86904 6.10562 6.06773 6.41968 6.37506C6.73373 6.68239 6.94114 7.0822 7.01151 7.51594Z" fill="white"/>
</g>
<defs>
<clipPath id="clip0_2247_260">
<rect width="12.1563" height="12.1563" fill="white" transform="translate(0 0.657959)"/>
</clipPath>
</defs>
</svg>
