<svg width="22" height="22" viewBox="0 0 22 22" fill="none" xmlns="http://www.w3.org/2000/svg">
<path d="M8.25163 15.5833H5.139C3.98544 15.5833 3.40866 15.5833 3.28731 15.4938C3.15097 15.3931 3.11766 15.3337 3.10289 15.165C3.08976 15.0147 3.44326 14.4362 4.15028 13.2794C4.88027 12.0849 5.50012 10.3457 5.50012 7.88333C5.50012 6.52189 6.07958 5.21621 7.11103 4.25352C8.14248 3.29083 9.54142 2.75 11.0001 2.75C12.4588 2.75 13.8577 3.29083 14.8892 4.25352C15.9207 5.21621 16.5001 6.52189 16.5001 7.88333C16.5001 10.3457 17.12 12.0849 17.85 13.2794C18.5569 14.4362 18.9105 15.0147 18.8974 15.165C18.8826 15.3337 18.8493 15.3931 18.7129 15.4938C18.5916 15.5833 18.0148 15.5833 16.8613 15.5833H13.7501M8.25163 15.5833L8.25012 16.5C8.25012 18.0188 9.48138 19.25 11.0001 19.25C12.5189 19.25 13.7501 18.0188 13.7501 16.5V15.5833M8.25163 15.5833H13.7501" stroke="white" stroke-linecap="round" stroke-linejoin="round"/>
</svg>
