<svg width="13" height="12" viewBox="0 0 13 12" fill="none" xmlns="http://www.w3.org/2000/svg">
<path d="M7.47079 5.00939C7.47079 5.12854 7.47385 5.22325 7.47079 5.32101C7.46468 5.44016 7.39136 5.51349 7.28443 5.5196C7.17445 5.52571 7.07668 5.44933 7.07363 5.33018C7.06446 5.1316 7.06446 4.93301 7.07363 4.73749C7.07974 4.59084 7.20194 4.51752 7.3547 4.55418C7.78547 4.66416 8.1918 4.8322 8.57674 5.05522C8.60424 5.07355 8.63479 5.08882 8.68673 5.11938C8.66229 5.07049 8.65312 5.03994 8.63479 5.0155C8.26207 4.42587 7.74881 4.01037 7.09807 3.75985C7.00947 3.72625 6.96364 3.74152 6.90254 3.82095C6.68869 4.0898 6.38623 4.1784 6.05933 4.1784C5.71105 4.1784 5.39332 4.07758 5.17335 3.77818C5.15808 3.7568 5.10614 3.73847 5.0817 3.74763C4.37597 3.99815 3.82299 4.43198 3.45027 5.08577C3.45027 5.08577 3.45027 5.09188 3.45944 5.1041C3.48999 5.08882 3.52359 5.07355 3.55414 5.05522C3.92992 4.83525 4.33014 4.67027 4.75175 4.56335C4.93505 4.51752 5.04198 4.5939 5.04504 4.7772C5.04504 4.9544 5.04504 5.1316 5.04504 5.30879C5.04504 5.44322 4.9656 5.52265 4.84645 5.52265C4.73036 5.52265 4.64787 5.44322 4.64176 5.31185C4.63565 5.22019 4.64176 5.12854 4.64176 5.01245C4.5165 5.05827 4.40346 5.08882 4.30265 5.13771C4.08573 5.24158 3.87187 5.34851 3.66413 5.4646C3.45638 5.5807 3.27613 5.57459 3.13254 5.431C2.98589 5.28435 2.97062 5.10105 3.08671 4.90246C3.56331 4.09897 4.25071 3.56433 5.15197 3.3077C5.33833 3.25576 5.40248 3.28937 5.47275 3.46656C5.5583 3.68347 5.86381 3.82706 6.1571 3.78124C6.39234 3.74458 6.59398 3.66209 6.67341 3.40546C6.70702 3.29853 6.81394 3.26492 6.94837 3.30159C7.77019 3.52766 8.41788 3.9951 8.90058 4.69166C8.95558 4.77109 9.00751 4.85358 9.05334 4.93912C9.1511 5.11632 9.12972 5.29352 8.99529 5.42794C8.86087 5.56237 8.67756 5.5807 8.49731 5.4921C8.21318 5.34851 7.92295 5.21103 7.63577 5.07355C7.58994 5.05216 7.54106 5.03994 7.47079 5.01856V5.00939Z" fill="white"/>
<path d="M7.38936 9.79368C7.3252 9.75702 7.27632 9.72646 7.22744 9.69591C7.10524 9.61954 7.07163 9.51872 7.12968 9.41179C7.18772 9.30486 7.29771 9.27736 7.42297 9.34458C7.55128 9.41484 7.6796 9.48817 7.80486 9.56454C7.95456 9.6562 7.96983 9.79062 7.84457 9.91894C7.54212 10.2275 7.20606 10.4902 6.83028 10.7072C6.79667 10.7285 6.76306 10.7469 6.73251 10.7805C7.50546 10.7805 8.17147 10.5177 8.74888 10.0136C8.56558 9.44539 8.70917 8.92297 9.15216 8.60524C9.27742 8.51664 9.44239 8.48304 9.58598 8.41888C9.6257 8.40055 9.68069 8.37 9.6868 8.33944C9.82428 7.60316 9.70513 6.90965 9.31408 6.25586C9.31408 6.29558 9.31408 6.33224 9.31408 6.37195C9.32019 6.80884 9.26214 7.23655 9.14299 7.65816C9.09106 7.84757 8.97191 7.89951 8.80082 7.8048C8.66945 7.73148 8.53808 7.6551 8.40671 7.57567C8.28145 7.50235 8.24785 7.39847 8.30589 7.29154C8.367 7.18156 8.48004 7.15712 8.61141 7.23044C8.66945 7.26099 8.7275 7.29765 8.8161 7.34653C8.84665 7.09602 8.88025 6.86383 8.90164 6.63469C8.91386 6.49721 8.90164 6.35668 8.9047 6.2192C8.9047 6.01756 9.01773 5.87703 9.21021 5.82509C9.3874 5.77621 9.55543 5.84037 9.6532 6.0084C10.139 6.8455 10.2673 7.73453 10.0198 8.67245C9.98315 8.81604 9.90066 8.87103 9.75707 8.84048C9.59515 8.80382 9.46684 8.85576 9.35074 8.95963C9.17355 9.1185 9.06662 9.31097 9.04829 9.55232C9.03912 9.67453 9.06967 9.78146 9.15521 9.87922C9.25603 9.9892 9.24992 10.087 9.14605 10.1908C8.45559 10.8721 7.62461 11.2112 6.65614 11.2051C6.46061 11.2051 6.31396 11.086 6.26814 10.9027C6.21926 10.7163 6.29869 10.5544 6.46977 10.4414C6.73862 10.2672 6.99831 10.0839 7.2641 9.90366C7.30382 9.87616 7.33742 9.83645 7.3802 9.79673L7.38936 9.79368Z" fill="white"/>
<path d="M3.39703 10.0139C3.97445 10.521 4.64352 10.7868 5.42562 10.7746C5.39813 10.7563 5.37063 10.7349 5.34008 10.7196C4.9643 10.5088 4.62519 10.2461 4.31967 9.93752C4.16997 9.78782 4.18525 9.65645 4.3655 9.54952C4.4816 9.48231 4.59769 9.41204 4.71684 9.34788C4.83599 9.28372 4.94292 9.31122 5.00096 9.41204C5.06207 9.51591 5.03457 9.61979 4.92153 9.69311C4.87265 9.72671 4.82071 9.75421 4.75655 9.79087C4.79322 9.82753 4.82377 9.86114 4.86043 9.88558C5.12317 10.0689 5.38285 10.2522 5.6517 10.4263C5.83806 10.5455 5.92055 10.7043 5.87167 10.9029C5.82584 11.0832 5.66392 11.1993 5.45006 11.1962C4.50909 11.1901 3.69949 10.8602 3.02125 10.2094C2.88377 10.075 2.88072 10.0017 2.99376 9.85197C3.02736 9.80615 3.05791 9.75116 3.07013 9.69616C3.15873 9.37232 2.9021 8.92628 2.58132 8.84379C2.51716 8.82851 2.44689 8.83157 2.38273 8.83768C2.23303 8.85295 2.15666 8.81018 2.11694 8.66659C1.87559 7.72867 1.99474 6.83964 2.48355 5.99948C2.58437 5.8284 2.76157 5.76424 2.93876 5.81618C3.12818 5.87117 3.229 6.02392 3.23817 6.23473C3.25039 6.53413 3.27483 6.83047 3.29621 7.12682C3.29927 7.18792 3.32065 7.24902 3.33593 7.33151C3.39703 7.2979 3.44591 7.27041 3.49479 7.24291C3.62922 7.16959 3.73615 7.19097 3.80031 7.30096C3.86446 7.414 3.8278 7.51176 3.69338 7.59425C3.58034 7.66146 3.4673 7.72562 3.35426 7.78978C3.17095 7.89365 3.04875 7.84477 2.99376 7.64313C2.87766 7.21236 2.81656 6.77853 2.82878 6.33249C2.82878 6.30805 2.82878 6.28666 2.81351 6.26222C2.4194 6.93129 2.31858 7.64619 2.46522 8.39774C3.27788 8.58105 3.66588 9.25317 3.39398 10.0078L3.39703 10.0139Z" fill="white"/>
<path d="M4.04688 7.41698C4.04688 6.25909 4.92675 5.3945 6.09381 5.40061C7.18448 5.40672 8.07963 6.32019 8.07657 7.42614C8.07657 8.53515 7.16309 9.45168 6.06937 9.44557C4.91148 9.43641 4.04383 8.56875 4.04688 7.41698ZM7.6733 7.43531C7.6733 6.51267 6.97368 5.81305 6.0602 5.80999C5.14367 5.80999 4.43794 6.51572 4.43794 7.43836C4.43794 8.30907 5.17727 9.03924 6.0602 9.03924C6.94313 9.03924 7.67635 8.30907 7.6733 7.43225V7.43531Z" fill="white"/>
<path d="M7.47085 1.97574C7.46474 2.74869 6.82928 3.37804 6.05328 3.37804C5.27729 3.37804 4.6296 2.72425 4.63877 1.95741C4.65099 1.16003 5.26507 0.552063 6.05939 0.552063C6.86289 0.552063 7.47391 1.17225 7.47085 1.97574ZM7.06452 1.96658C7.07369 1.41971 6.62764 0.961448 6.08383 0.952282C5.51864 0.943117 5.05732 1.38305 5.0451 1.93603C5.03288 2.51039 5.46976 2.95643 6.04717 2.9656C6.61848 2.97171 7.05536 2.54094 7.06452 1.96658Z" fill="white"/>
<path d="M12.1546 10.0838C12.1637 10.8506 11.5344 11.5044 10.7798 11.5105C10.0038 11.5166 9.3286 10.8781 9.31943 10.1266C9.31027 9.32613 9.94268 8.68456 10.7462 8.67845C11.5191 8.67234 12.1454 9.29864 12.1546 10.0838ZM10.7553 11.1042C11.2869 11.1164 11.7421 10.6551 11.7605 10.093C11.7757 9.56138 11.3053 9.097 10.7401 9.08172C10.2054 9.06645 9.73798 9.53694 9.72882 10.0991C9.72271 10.6307 10.1932 11.092 10.7584 11.1042H10.7553Z" fill="white"/>
<path d="M-0.0019077 10.0685C0.00420252 9.28642 0.62439 8.67234 1.40039 8.67845C2.19166 8.68456 2.82712 9.31391 2.82101 10.0869C2.8149 10.8567 2.15805 11.5197 1.4065 11.5136C0.603004 11.5075 -0.00801792 10.8781 -0.0019077 10.0685ZM2.41468 10.1205C2.41468 9.55527 1.95642 9.0695 1.41566 9.07256C0.862688 9.07561 0.389146 9.53388 0.392201 10.0655C0.392201 10.6215 0.853523 11.1042 1.38817 11.1073C1.94114 11.1073 2.41468 10.6551 2.41468 10.1205Z" fill="white"/>
<path d="M7.67188 7.4352C7.67188 8.31202 6.94171 9.04219 6.05879 9.04219C5.17586 9.04219 4.43652 8.31202 4.43652 7.44131C4.43652 6.51867 5.14225 5.80988 6.05879 5.81294C6.97226 5.81294 7.66883 6.51561 7.67188 7.43826V7.4352Z" fill="white"/>
<path d="M7.06362 1.96646C7.05446 2.54388 6.61758 2.97159 6.04627 2.96548C5.46886 2.95937 5.03198 2.51027 5.0442 1.93591C5.05642 1.37988 5.51774 0.943003 6.08293 0.952168C6.62674 0.961333 7.07279 1.42265 7.06362 1.96646Z" fill="white"/>
<path d="M10.7513 11.1046C10.1861 11.0924 9.71563 10.6311 9.72174 10.0995C9.7309 9.53736 10.1983 9.06687 10.733 9.08215C11.2982 9.09742 11.7687 9.5618 11.7534 10.0934C11.7381 10.6555 11.2829 11.1169 10.7483 11.1046H10.7513Z" fill="white"/>
<path d="M2.41506 10.1237C2.41506 10.6583 1.94152 11.1135 1.38854 11.1105C0.8539 11.1105 0.392578 10.6247 0.392578 10.0687C0.392578 9.53708 0.863065 9.07881 1.41604 9.07576C1.95374 9.0727 2.41812 9.55847 2.41506 10.1237Z" fill="white"/>
</svg>
