<svg width="13" height="13" viewBox="0 0 13 13" fill="none" xmlns="http://www.w3.org/2000/svg">
<path d="M8.28729 0.552551H3.86802C1.65805 0.552551 0.552734 1.65727 0.552734 3.86803V11.0514C0.552734 11.3551 0.801381 11.6037 1.10506 11.6037H8.28861C10.4986 11.6037 11.6039 10.499 11.6039 8.28823V3.86803C11.6039 1.65727 10.4986 0.552551 8.28861 0.552551H8.28729ZM7.18264 7.8738H3.31503C3.20539 7.87293 3.10048 7.82899 3.02295 7.75145C2.94542 7.67392 2.90148 7.56901 2.90062 7.45936C2.90148 7.34972 2.94542 7.2448 3.02295 7.16727C3.10048 7.08974 3.20539 7.04579 3.31503 7.04493H7.18264C7.29228 7.04579 7.39718 7.08974 7.47471 7.16727C7.55224 7.2448 7.59618 7.34972 7.59705 7.45936C7.59618 7.56901 7.55224 7.67392 7.47471 7.75145C7.39718 7.82899 7.29228 7.87293 7.18264 7.8738ZM8.84028 5.11134H3.31503C3.20539 5.11047 3.10048 5.06653 3.02295 4.989C2.94542 4.91146 2.90148 4.80655 2.90062 4.6969C2.90148 4.58726 2.94542 4.48235 3.02295 4.40481C3.10048 4.32728 3.20539 4.28333 3.31503 4.28247H8.84028C8.94992 4.28333 9.05482 4.32728 9.13235 4.40481C9.20988 4.48235 9.25382 4.58726 9.25469 4.6969C9.25382 4.80655 9.20988 4.91146 9.13235 4.989C9.05482 5.06653 8.94992 5.11047 8.84028 5.11134Z" fill="white"/>
</svg>
