<svg width="13" height="13" viewBox="0 0 13 13" fill="none" xmlns="http://www.w3.org/2000/svg">
<g clip-path="url(#clip0_2247_213)">
<path d="M3.27087 10.0053L1.01367 11.7787V2.40535C1.01367 2.27097 1.06705 2.1421 1.16207 2.04708C1.25709 1.95206 1.38596 1.89868 1.52034 1.89868H10.6403C10.7747 1.89868 10.9036 1.95206 10.9986 2.04708C11.0936 2.1421 11.147 2.27097 11.147 2.40535V9.49868C11.147 9.63306 11.0936 9.76193 10.9986 9.85695C10.9036 9.95197 10.7747 10.0053 10.6403 10.0053H3.27087ZM5.57367 6.96535V7.97868H6.58701V6.96535H5.57367ZM5.57367 3.92535V6.45868H6.58701V3.92535H5.57367Z" fill="white"/>
</g>
<defs>
<clipPath id="clip0_2247_213">
<rect width="12.16" height="12.16" fill="white" transform="translate(0 0.378662)"/>
</clipPath>
</defs>
</svg>
