<svg width="13" height="13" viewBox="0 0 13 13" fill="none" xmlns="http://www.w3.org/2000/svg">
<g clip-path="url(#clip0_2247_209)">
<path d="M2.9132 0.885376C3.12307 0.885376 3.2932 1.05551 3.2932 1.26538V2.20271L4.16501 2.02835C5.00128 1.86109 5.86813 1.94068 6.65995 2.25741L6.76316 2.29869C7.55412 2.61508 8.42472 2.67417 9.2512 2.46754C9.6349 2.37163 10.0065 2.66182 10.0065 3.0573V6.78992C10.0065 7.11636 9.78436 7.40091 9.46765 7.4801L9.35902 7.50726C8.46242 7.73141 7.51804 7.66731 6.65995 7.3241C5.86813 7.00733 5.00128 6.92778 4.16501 7.09503L3.2932 7.26938V11.3987C3.2932 11.6086 3.12307 11.7787 2.9132 11.7787C2.70334 11.7787 2.5332 11.6086 2.5332 11.3987V1.26538C2.5332 1.05551 2.70334 0.885376 2.9132 0.885376Z" fill="white"/>
</g>
<defs>
<clipPath id="clip0_2247_209">
<rect width="12.16" height="12.16" fill="white" transform="translate(0 0.378662)"/>
</clipPath>
</defs>
</svg>
