<svg width="13" height="13" viewBox="0 0 13 13" fill="none" xmlns="http://www.w3.org/2000/svg">
<path d="M6.07832 11.6038C3.02654 11.6038 0.552734 9.13003 0.552734 6.07825C0.552734 3.02648 3.02654 0.552673 6.07832 0.552673C9.13009 0.552673 11.6039 3.02648 11.6039 6.07825C11.6039 9.13003 9.13009 11.6038 6.07832 11.6038ZM3.82388 4.54988V4.60624C3.82388 4.67951 3.85299 4.74979 3.9048 4.8016C3.95661 4.85341 4.02688 4.88252 4.10016 4.88252H4.65106C4.68727 4.88252 4.72312 4.87539 4.75657 4.86153C4.79003 4.84767 4.82042 4.82736 4.84603 4.80176C4.87163 4.77616 4.89194 4.74576 4.9058 4.71231C4.91965 4.67886 4.92678 4.643 4.92678 4.60679C4.92678 3.89399 5.47824 3.51328 6.21977 3.51328C6.94252 3.51328 7.41772 3.89399 7.41772 4.43605C7.41772 4.94883 7.15138 5.18698 6.4861 5.49144L6.29602 5.57653C5.73518 5.82408 5.52576 6.19429 5.52576 6.84134V6.90709C5.52576 6.98037 5.55487 7.05064 5.60668 7.10245C5.65849 7.15426 5.72876 7.18337 5.80204 7.18337H6.35294C6.38915 7.18337 6.425 7.17624 6.45845 7.16238C6.49191 7.14853 6.5223 7.12822 6.5479 7.10261C6.57351 7.07701 6.59382 7.04661 6.60767 7.01316C6.62153 6.97971 6.62866 6.94385 6.62866 6.90764C6.62866 6.62252 6.70492 6.50814 6.93257 6.40371L7.1232 6.31806C7.92165 5.95669 8.52062 5.48149 8.52062 4.44489V4.38798C8.52062 3.29502 7.57022 2.48663 6.21977 2.48663C4.85053 2.48663 3.82388 3.27568 3.82388 4.54988ZM5.24948 8.83607C5.24948 9.31514 5.61361 9.66988 6.07334 9.66988C6.54302 9.66988 6.90715 9.31514 6.90715 8.83607C6.90715 8.357 6.54302 8.01221 6.07334 8.01221C5.61361 8.01221 5.24948 8.357 5.24948 8.83607Z" fill="white"/>
</svg>
