<svg width="13" height="13" viewBox="0 0 13 13" fill="none" xmlns="http://www.w3.org/2000/svg">
<path d="M11.6029 6.07807C11.6029 7.17093 11.2789 8.23924 10.6717 9.14792C10.0645 10.0566 9.20156 10.7648 8.19189 11.183C7.18222 11.6013 6.07121 11.7107 4.99935 11.4975C3.9275 11.2843 2.94293 10.758 2.17017 9.98525C1.3974 9.21248 0.871139 8.22791 0.657933 7.15606C0.444727 6.0842 0.554152 4.97319 0.97237 3.96352C1.39059 2.95385 2.09882 2.09088 3.00749 1.48372C3.91617 0.87656 4.98448 0.55249 6.07734 0.55249C6.80297 0.55249 7.52149 0.695414 8.19189 0.9731C8.86228 1.25079 9.47142 1.6578 9.98452 2.1709C10.4976 2.68399 10.9046 3.29313 11.1823 3.96352C11.46 4.63392 11.6029 5.35244 11.6029 6.07807ZM9.65777 6.11995C9.6574 5.4992 9.49394 4.88944 9.18375 4.35175C8.87357 3.81406 8.42755 3.36731 7.89037 3.05624C7.35319 2.74517 6.74371 2.5807 6.12296 2.57931C5.50221 2.57792 4.892 2.73966 4.35343 3.04832C4.02652 3.23674 3.73158 3.47585 3.47961 3.75673V3.27724C3.47961 3.20394 3.45049 3.13364 3.39866 3.08181C3.34683 3.02998 3.27653 3.00086 3.20323 3.00086C3.12993 3.00086 3.05963 3.02998 3.0078 3.08181C2.95596 3.13364 2.92685 3.20394 2.92685 3.27724V4.43582C2.92703 4.509 2.95623 4.57912 3.00804 4.6308C3.05985 4.68248 3.13005 4.71151 3.20323 4.71151H4.36041C4.43122 4.70794 4.49795 4.67731 4.54681 4.62593C4.59567 4.57456 4.62291 4.50637 4.62291 4.43547C4.62291 4.36457 4.59567 4.29639 4.54681 4.24501C4.49795 4.19363 4.43122 4.163 4.36041 4.15944H3.85999C4.14031 3.83616 4.4869 3.57697 4.87623 3.39946C5.26557 3.22195 5.68853 3.13029 6.11643 3.13068C6.70745 3.13081 7.28516 3.30619 7.77652 3.63463C8.26789 3.96307 8.65083 4.42983 8.87694 4.97589C9.10305 5.52196 9.16218 6.1228 9.04684 6.70246C8.9315 7.28212 8.64688 7.81457 8.22897 8.23249C7.81105 8.65041 7.2786 8.93503 6.69894 9.05036C6.11928 9.1657 5.51843 9.10658 4.97237 8.88046C4.42631 8.65435 3.95955 8.27141 3.63111 7.78005C3.30267 7.28868 3.12729 6.71097 3.12715 6.11995C3.12715 6.04665 3.09804 5.97635 3.0462 5.92451C2.99437 5.87268 2.92407 5.84356 2.85077 5.84356C2.77747 5.84356 2.70717 5.87268 2.65534 5.92451C2.60351 5.97635 2.57439 6.04665 2.57439 6.11995C2.57439 6.58509 2.666 7.04569 2.84401 7.47543C3.02201 7.90517 3.28292 8.29564 3.61183 8.62455C3.94073 8.95345 4.33121 9.21436 4.76095 9.39236C5.19069 9.57037 5.65128 9.66199 6.11643 9.66199C6.58157 9.66199 7.04216 9.57037 7.4719 9.39236C7.90164 9.21436 8.29212 8.95345 8.62102 8.62455C8.94993 8.29564 9.21084 7.90517 9.38884 7.47543C9.56685 7.04569 9.65777 6.58509 9.65777 6.11995ZM6.33348 6.05085V4.18596C6.32992 4.11515 6.29929 4.04842 6.24791 3.99956C6.19653 3.9507 6.12835 3.92346 6.05745 3.92346C5.98655 3.92346 5.91836 3.9507 5.86699 3.99956C5.81561 4.04842 5.78498 4.11515 5.78141 4.18596V6.1688C5.78133 6.21096 5.79091 6.25257 5.80942 6.29044C5.82793 6.32831 5.85488 6.36143 5.8882 6.38726L6.96093 7.45929C6.9865 7.48538 7.01699 7.50614 7.05063 7.52038C7.08427 7.53461 7.1204 7.54204 7.15693 7.54222C7.19346 7.54241 7.22967 7.53535 7.26345 7.52145C7.29723 7.50756 7.32793 7.48711 7.35376 7.46128C7.37959 7.43544 7.40005 7.40475 7.41394 7.37096C7.42783 7.33718 7.43489 7.30098 7.43471 7.26445C7.43452 7.22792 7.4271 7.19179 7.41286 7.15814C7.39863 7.1245 7.37787 7.09401 7.35178 7.06844L6.33348 6.05085Z" fill="white"/>
</svg>
