<svg width="38" height="12" viewBox="0 0 38 12" fill="none" xmlns="http://www.w3.org/2000/svg">
<path d="M6.40039 4.13672V5.05664H1.7832V4.13672H6.40039ZM1.95898 0.46875V9H0.828125V0.46875H1.95898ZM7.38477 0.46875V9H6.25977V0.46875H7.38477ZM10.4082 2.66016V9H9.31836V2.66016H10.4082ZM9.23633 0.978516C9.23633 0.802734 9.28906 0.654297 9.39453 0.533203C9.50391 0.412109 9.66406 0.351562 9.875 0.351562C10.082 0.351562 10.2402 0.412109 10.3496 0.533203C10.4629 0.654297 10.5195 0.802734 10.5195 0.978516C10.5195 1.14648 10.4629 1.29102 10.3496 1.41211C10.2402 1.5293 10.082 1.58789 9.875 1.58789C9.66406 1.58789 9.50391 1.5293 9.39453 1.41211C9.28906 1.29102 9.23633 1.14648 9.23633 0.978516ZM15.8398 7.31836C15.8398 7.16211 15.8047 7.01758 15.7344 6.88477C15.668 6.74805 15.5293 6.625 15.3184 6.51562C15.1113 6.40234 14.7988 6.30469 14.3809 6.22266C14.0293 6.14844 13.7109 6.06055 13.4258 5.95898C13.1445 5.85742 12.9043 5.73438 12.7051 5.58984C12.5098 5.44531 12.3594 5.27539 12.2539 5.08008C12.1484 4.88477 12.0957 4.65625 12.0957 4.39453C12.0957 4.14453 12.1504 3.9082 12.2598 3.68555C12.373 3.46289 12.5312 3.26562 12.7344 3.09375C12.9414 2.92188 13.1895 2.78711 13.4785 2.68945C13.7676 2.5918 14.0898 2.54297 14.4453 2.54297C14.9531 2.54297 15.3867 2.63281 15.7461 2.8125C16.1055 2.99219 16.3809 3.23242 16.5723 3.5332C16.7637 3.83008 16.8594 4.16016 16.8594 4.52344H15.7754C15.7754 4.34766 15.7227 4.17773 15.6172 4.01367C15.5156 3.8457 15.3652 3.70703 15.166 3.59766C14.9707 3.48828 14.7305 3.43359 14.4453 3.43359C14.1445 3.43359 13.9004 3.48047 13.7129 3.57422C13.5293 3.66406 13.3945 3.7793 13.3086 3.91992C13.2266 4.06055 13.1855 4.20898 13.1855 4.36523C13.1855 4.48242 13.2051 4.58789 13.2441 4.68164C13.2871 4.77148 13.3613 4.85547 13.4668 4.93359C13.5723 5.00781 13.7207 5.07812 13.9121 5.14453C14.1035 5.21094 14.3477 5.27734 14.6445 5.34375C15.1641 5.46094 15.5918 5.60156 15.9277 5.76562C16.2637 5.92969 16.5137 6.13086 16.6777 6.36914C16.8418 6.60742 16.9238 6.89648 16.9238 7.23633C16.9238 7.51367 16.8652 7.76758 16.748 7.99805C16.6348 8.22852 16.4688 8.42773 16.25 8.5957C16.0352 8.75977 15.7773 8.88867 15.4766 8.98242C15.1797 9.07227 14.8457 9.11719 14.4746 9.11719C13.916 9.11719 13.4434 9.01758 13.0566 8.81836C12.6699 8.61914 12.377 8.36133 12.1777 8.04492C11.9785 7.72852 11.8789 7.39453 11.8789 7.04297H12.9688C12.9844 7.33984 13.0703 7.57617 13.2266 7.75195C13.3828 7.92383 13.5742 8.04688 13.8008 8.12109C14.0273 8.19141 14.252 8.22656 14.4746 8.22656C14.7715 8.22656 15.0195 8.1875 15.2188 8.10938C15.4219 8.03125 15.5762 7.92383 15.6816 7.78711C15.7871 7.65039 15.8398 7.49414 15.8398 7.31836ZM21.002 2.66016V3.49219H17.5742V2.66016H21.002ZM18.7344 1.11914H19.8184V7.42969C19.8184 7.64453 19.8516 7.80664 19.918 7.91602C19.9844 8.02539 20.0703 8.09766 20.1758 8.13281C20.2812 8.16797 20.3945 8.18555 20.5156 8.18555C20.6055 8.18555 20.6992 8.17773 20.7969 8.16211C20.8984 8.14258 20.9746 8.12695 21.0254 8.11523L21.0312 9C20.9453 9.02734 20.832 9.05273 20.6914 9.07617C20.5547 9.10352 20.3887 9.11719 20.1934 9.11719C19.9277 9.11719 19.6836 9.06445 19.4609 8.95898C19.2383 8.85352 19.0605 8.67773 18.9277 8.43164C18.7988 8.18164 18.7344 7.8457 18.7344 7.42383V1.11914ZM21.8691 5.90039V5.76562C21.8691 5.30859 21.9355 4.88477 22.0684 4.49414C22.2012 4.09961 22.3926 3.75781 22.6426 3.46875C22.8926 3.17578 23.1953 2.94922 23.5508 2.78906C23.9062 2.625 24.3047 2.54297 24.7461 2.54297C25.1914 2.54297 25.5918 2.625 25.9473 2.78906C26.3066 2.94922 26.6113 3.17578 26.8613 3.46875C27.1152 3.75781 27.3086 4.09961 27.4414 4.49414C27.5742 4.88477 27.6406 5.30859 27.6406 5.76562V5.90039C27.6406 6.35742 27.5742 6.78125 27.4414 7.17188C27.3086 7.5625 27.1152 7.9043 26.8613 8.19727C26.6113 8.48633 26.3086 8.71289 25.9531 8.87695C25.6016 9.03711 25.2031 9.11719 24.7578 9.11719C24.3125 9.11719 23.9121 9.03711 23.5566 8.87695C23.2012 8.71289 22.8965 8.48633 22.6426 8.19727C22.3926 7.9043 22.2012 7.5625 22.0684 7.17188C21.9355 6.78125 21.8691 6.35742 21.8691 5.90039ZM22.9531 5.76562V5.90039C22.9531 6.2168 22.9902 6.51562 23.0645 6.79688C23.1387 7.07422 23.25 7.32031 23.3984 7.53516C23.5508 7.75 23.7402 7.91992 23.9668 8.04492C24.1934 8.16602 24.457 8.22656 24.7578 8.22656C25.0547 8.22656 25.3145 8.16602 25.5371 8.04492C25.7637 7.91992 25.9512 7.75 26.0996 7.53516C26.248 7.32031 26.3594 7.07422 26.4336 6.79688C26.5117 6.51562 26.5508 6.2168 26.5508 5.90039V5.76562C26.5508 5.45312 26.5117 5.1582 26.4336 4.88086C26.3594 4.59961 26.2461 4.35156 26.0938 4.13672C25.9453 3.91797 25.7578 3.74609 25.5312 3.62109C25.3086 3.49609 25.0469 3.43359 24.7461 3.43359C24.4492 3.43359 24.1875 3.49609 23.9609 3.62109C23.7383 3.74609 23.5508 3.91797 23.3984 4.13672C23.25 4.35156 23.1387 4.59961 23.0645 4.88086C22.9902 5.1582 22.9531 5.45312 22.9531 5.76562ZM30.084 3.65625V9H29V2.66016H30.0547L30.084 3.65625ZM32.0645 2.625L32.0586 3.63281C31.9688 3.61328 31.8828 3.60156 31.8008 3.59766C31.7227 3.58984 31.6328 3.58594 31.5312 3.58594C31.2812 3.58594 31.0605 3.625 30.8691 3.70312C30.6777 3.78125 30.5156 3.89062 30.3828 4.03125C30.25 4.17188 30.1445 4.33984 30.0664 4.53516C29.9922 4.72656 29.9434 4.9375 29.9199 5.16797L29.6152 5.34375C29.6152 4.96094 29.6523 4.60156 29.7266 4.26562C29.8047 3.92969 29.9238 3.63281 30.084 3.375C30.2441 3.11328 30.4473 2.91016 30.6934 2.76562C30.9434 2.61719 31.2402 2.54297 31.584 2.54297C31.6621 2.54297 31.752 2.55273 31.8535 2.57227C31.9551 2.58789 32.0254 2.60547 32.0645 2.625ZM34.9531 8.34375L36.7168 2.66016H37.877L35.334 9.97852C35.2754 10.1348 35.1973 10.3027 35.0996 10.4824C35.0059 10.666 34.8848 10.8398 34.7363 11.0039C34.5879 11.168 34.4082 11.3008 34.1973 11.4023C33.9902 11.5078 33.7422 11.5605 33.4531 11.5605C33.3672 11.5605 33.2578 11.5488 33.125 11.5254C32.9922 11.502 32.8984 11.4824 32.8438 11.4668L32.8379 10.5879C32.8691 10.5918 32.918 10.5957 32.9844 10.5996C33.0547 10.6074 33.1035 10.6113 33.1309 10.6113C33.377 10.6113 33.5859 10.5781 33.7578 10.5117C33.9297 10.4492 34.0742 10.3418 34.1914 10.1895C34.3125 10.041 34.416 9.83594 34.502 9.57422L34.9531 8.34375ZM33.6582 2.66016L35.3047 7.58203L35.5859 8.72461L34.8066 9.12305L32.4746 2.66016H33.6582Z" fill="white"/>
</svg>
