<svg width="13" height="12" viewBox="0 0 13 12" fill="none" xmlns="http://www.w3.org/2000/svg">
<path d="M11.9675 4.69539L10.4455 3.52469L9.72312 2.9681L6.99013 0.861795C6.72604 0.660818 6.40598 0.552307 6.07718 0.552307C5.74841 0.552307 5.42833 0.660818 5.16424 0.861795L2.7983 2.68504L1.72988 3.50691C1.65876 3.56005 1.59368 3.62122 1.53584 3.68926L0.179862 4.7688C0.0822034 4.84717 0.0185988 4.96192 0.00284375 5.0881C-0.0129113 5.21431 0.0204551 5.34177 0.0957023 5.44291C0.139823 5.50075 0.19626 5.54746 0.260692 5.57949C0.325122 5.61151 0.395838 5.62797 0.467424 5.62761C0.570908 5.62835 0.671533 5.5928 0.752649 5.52688L1.12203 5.23178V10.0441C1.1224 10.4576 1.28262 10.854 1.56754 11.1463C1.85243 11.4387 2.23875 11.6031 2.64166 11.6035H4.18934V9.7011C4.1899 9.18782 4.38885 8.69571 4.74255 8.33277C5.09625 7.96983 5.5758 7.76568 6.07601 7.7651C6.57658 7.76517 7.05666 7.96909 7.41085 8.33208C7.76502 8.69507 7.96435 9.18743 7.96503 9.7011V11.6035H9.51505C9.91784 11.6027 10.3039 11.4381 10.5887 11.1459C10.8735 10.8536 11.0339 10.4575 11.0347 10.0441V5.1766L11.4064 5.46208C11.4873 5.52453 11.5857 5.55823 11.6869 5.55804C11.7595 5.55804 11.8311 5.54072 11.896 5.5074C11.961 5.4741 12.0175 5.42571 12.061 5.36612C12.0981 5.31591 12.1251 5.25865 12.1405 5.19764C12.1559 5.13663 12.1593 5.07311 12.1506 5.01074C12.1419 4.94836 12.1213 4.88836 12.0898 4.83424C12.0584 4.7801 12.0168 4.73291 11.9675 4.69539Z" fill="white"/>
</svg>
