<svg width="25" height="25" viewBox="0 0 21 21" fill="none" xmlns="http://www.w3.org/2000/svg">
<g transform="scale(1.3)"> 
<path d="M6.76786 9.57209C6.76786 9.11859 6.77006 8.66509 6.76565 8.21159C6.76565 8.12225 6.78771 8.06457 6.86493 8.01368C7.09658 7.86101 7.32493 7.70155 7.54996 7.53869C8.18094 7.08293 8.87038 6.95627 9.62271 7.13043C10.2493 7.27632 10.8814 7.40072 11.5101 7.53983C11.8697 7.62012 12.1025 7.93339 12.0672 8.27606C12.0286 8.647 11.7517 8.90372 11.3711 8.90937C10.9332 8.91503 10.4953 8.90937 10.0573 8.91276C9.98453 8.91276 9.90621 8.91842 9.83892 8.94443C9.66021 9.01342 9.56093 9.20115 9.59182 9.38662C9.62381 9.58453 9.77273 9.73042 9.96908 9.73381C10.3805 9.7406 10.7931 9.73721 11.2046 9.73834C11.5068 9.73834 11.8091 9.73608 12.1113 9.73834C12.4412 9.74173 12.739 9.6456 13.0137 9.459C13.5652 9.0858 14.1201 8.71712 14.675 8.34957C14.9088 8.19463 15.1548 8.1754 15.3942 8.32469C15.6369 8.4751 15.7869 8.69337 15.7803 8.99871C15.7759 9.17627 15.713 9.33347 15.5872 9.45674C15.1327 9.90571 14.6827 10.3581 14.2194 10.7969C13.9171 11.0819 13.5498 11.2492 13.1494 11.3431C12.3948 11.5207 11.6403 11.6982 10.8858 11.8746C10.471 11.9708 10.0617 11.9436 9.65139 11.8351C8.73691 11.593 7.82022 11.3578 6.90354 11.126C6.80095 11.1 6.76455 11.0604 6.76565 10.9473C6.77337 10.4893 6.76896 10.0312 6.76896 9.57322L6.76786 9.57209Z" fill="white"/>
<path d="M12.2316 4.26901C11.9206 4.26901 11.6095 4.26675 11.2984 4.27015C11.2212 4.27015 11.1837 4.25092 11.1649 4.1661C11.1065 3.89694 10.9553 3.67754 10.7855 3.46832C10.1887 2.7287 10.1986 1.69843 10.8031 0.971247C11.4738 0.164899 12.6619 0.066509 13.4572 0.752979C14.247 1.43379 14.3584 2.6484 13.6999 3.45927C13.5212 3.6798 13.369 3.90938 13.2995 4.19211C13.2906 4.22717 13.22 4.26675 13.177 4.26788C12.8615 4.27467 12.546 4.27128 12.2305 4.27128L12.2316 4.26901Z" fill="white"/>
<path d="M5.96118 9.47713C5.96118 10.245 5.96118 11.0118 5.96118 11.7797C5.96118 12.0726 5.87955 12.1563 5.59385 12.1563C5.26071 12.1563 4.92867 12.1574 4.59553 12.1563C4.23923 12.154 3.99985 11.912 3.99985 11.5501C3.99875 10.1681 3.99875 8.78501 3.99985 7.40302C3.99985 7.04791 4.23812 6.80137 4.5845 6.79798C4.93529 6.79459 5.28497 6.79572 5.63576 6.79798C5.86411 6.79798 5.96118 6.8975 5.96118 7.13612C5.96228 7.91759 5.96118 8.69793 5.96118 9.47939V9.47713Z" fill="white"/>
<path d="M13.2522 4.93292C13.2522 5.09578 13.2688 5.2575 13.2478 5.4147C13.2202 5.62392 13.0228 5.78903 12.8099 5.79242C12.4282 5.79808 12.0476 5.79921 11.6659 5.79242C11.4266 5.7879 11.2401 5.6013 11.217 5.34797C11.2048 5.21565 11.2148 5.07994 11.2148 4.93292H13.2511H13.2522Z" fill="white"/>
<path d="M15.7663 0.426251C15.7023 0.521248 15.6504 0.630948 15.5699 0.706719C15.4651 0.80511 15.3383 0.880881 15.2158 0.958915C15.0338 1.07427 14.8198 1.03016 14.704 0.861656C14.5826 0.684101 14.6135 0.461309 14.7878 0.325599C14.9125 0.22834 15.0415 0.134473 15.1783 0.0553085C15.4386 -0.0951042 15.7453 0.0994144 15.7365 0.403632C15.7464 0.411549 15.7574 0.418334 15.7674 0.426251H15.7663Z" fill="white"/>
<path d="M15.7648 4.05989C15.7306 4.36977 15.4294 4.55184 15.179 4.40596C15.0345 4.32227 14.8977 4.22275 14.7675 4.11644C14.6131 3.99091 14.5877 3.76812 14.6958 3.60752C14.8062 3.44467 15.0157 3.38473 15.1845 3.48425C15.3323 3.57134 15.4791 3.66633 15.6048 3.78282C15.6787 3.85067 15.7129 3.96603 15.7648 4.05989Z" fill="white"/>
<path d="M8.91162 2.61459C8.8333 2.61459 8.75388 2.61912 8.67556 2.61459C8.48141 2.60328 8.33249 2.44948 8.31925 2.25044C8.30601 2.05931 8.4417 1.87271 8.63584 1.85348C8.81675 1.83652 9.00318 1.83652 9.18409 1.85348C9.37713 1.87271 9.5073 2.05931 9.49406 2.25383C9.48193 2.44269 9.33411 2.59763 9.14658 2.6112C9.06826 2.61685 8.98994 2.6112 8.91052 2.6112L8.91162 2.61459Z" fill="white"/>
<path d="M9.84331 3.81818C9.84552 3.95502 9.79036 4.06246 9.68447 4.14049C9.56643 4.22644 9.4484 4.31239 9.32595 4.39042C9.14615 4.50578 8.92773 4.46167 8.8119 4.2943C8.69056 4.119 8.72255 3.89169 8.89795 3.75598C9.02039 3.66211 9.14725 3.57164 9.27852 3.49247C9.53334 3.3398 9.84111 3.51961 9.84442 3.81705L9.84331 3.81818Z" fill="white"/>
<path d="M9.86959 0.622123C9.84422 0.928603 9.54969 1.11973 9.29928 0.978363C9.14706 0.892413 9.00365 0.787237 8.86797 0.675276C8.72015 0.554267 8.7003 0.334869 8.80509 0.17767C8.91099 0.0170795 9.11286 -0.0507759 9.27722 0.0442216C9.43607 0.135826 9.59051 0.242133 9.72839 0.364273C9.79679 0.425342 9.82437 0.535042 9.8707 0.622123H9.86959Z" fill="white"/>
<path d="M15.5675 2.61572C15.4936 2.61572 15.4186 2.61912 15.3447 2.61572C15.1472 2.60555 14.9972 2.454 14.9862 2.25835C14.974 2.048 15.1009 1.87271 15.3038 1.85348C15.4814 1.83652 15.6624 1.83652 15.8389 1.85348C16.0363 1.87271 16.1621 2.04687 16.1543 2.24817C16.1466 2.44495 15.9977 2.60102 15.8036 2.61346C15.7252 2.61799 15.6469 2.61346 15.5675 2.61346V2.61572Z" fill="white"/>
</g>
<defs>
<filter id="filter0_d_2247_143" x="0" y="0" width="20.1562" height="20.1562" filterUnits="userSpaceOnUse" color-interpolation-filters="sRGB">
<feFlood flood-opacity="0" result="BackgroundImageFix"/>
<feColorMatrix in="SourceAlpha" type="matrix" values="0 0 0 0 0 0 0 0 0 0 0 0 0 0 0 0 0 0 127 0" result="hardAlpha"/>
<feOffset dy="4"/>
<feGaussianBlur stdDeviation="2"/>
<feComposite in2="hardAlpha" operator="out"/>
<feColorMatrix type="matrix" values="0 0 0 0 0 0 0 0 0 0 0 0 0 0 0 0 0 0 0.25 0"/>
<feBlend mode="normal" in2="BackgroundImageFix" result="effect1_dropShadow_2247_143"/>
<feBlend mode="normal" in="SourceGraphic" in2="effect1_dropShadow_2247_143" result="shape"/>
</filter>
<clipPath id="clip0_2247_143">
<rect width="12.1563" height="12.1563" fill="white" transform="translate(4)"/>
</clipPath>
</defs>
</svg>
