<svg width="13" height="13" viewBox="0 0 13 13" fill="none" xmlns="http://www.w3.org/2000/svg">
<g clip-path="url(#clip0_2247_179)">
<path fill-rule="evenodd" clip-rule="evenodd" d="M1.10316 0.00012207C0.492824 0.00012207 -0.00195312 0.494899 -0.00195312 1.10524V11.0513C-0.00195312 11.6616 0.492824 12.1564 1.10316 12.1564H11.0492C11.6595 12.1564 12.1543 11.6616 12.1543 11.0513V1.10524C12.1543 0.4949 11.6595 0.00012207 11.0492 0.00012207H1.10316ZM10.9944 6.55056L10.9933 6.55166L10.9927 6.55229C10.9885 6.55749 10.985 6.56172 10.9763 6.56595L10.974 6.56815C10.9695 6.57364 10.965 6.57804 10.9604 6.58243L10.9604 6.58244L10.9582 6.58464C10.9536 6.58903 10.948 6.59343 10.9423 6.59783L9.25691 7.9082C9.20598 7.94777 9.14485 7.96756 9.0826 7.96756C9.02148 7.96756 8.95922 7.94777 8.90829 7.9082L7.22288 6.59783C7.22005 6.59563 7.2175 6.59343 7.21496 6.59123C7.21241 6.58903 7.20986 6.58683 7.20703 6.58464L7.20477 6.58244C7.20095 6.57947 7.19764 6.57599 7.1945 6.5727C7.19299 6.57112 7.19152 6.56957 7.19006 6.56815L7.18779 6.56595L7.17534 6.55056V6.54946C7.17364 6.54671 7.17166 6.54396 7.16968 6.54121C7.1677 6.53846 7.16572 6.53572 7.16402 6.53297C7.16402 6.53249 7.16381 6.53222 7.16357 6.53198C7.16325 6.53166 7.16289 6.53139 7.16289 6.53077C7.16119 6.52802 7.15949 6.525 7.1578 6.52197C7.1561 6.51895 7.1544 6.51593 7.1527 6.51318C7.13912 6.489 7.12893 6.46261 7.1244 6.43403C7.12384 6.43073 7.12356 6.42744 7.12327 6.42414C7.12299 6.42084 7.12271 6.41754 7.12214 6.41424V6.41204C7.12101 6.40655 7.12101 6.40105 7.12101 6.39446V6.39006C7.12101 6.38661 7.12132 6.38346 7.12161 6.38046C7.12188 6.37772 7.12214 6.37509 7.12214 6.37247V6.36917C7.12327 6.35598 7.12554 6.34279 7.12893 6.3296V6.3285C7.13233 6.31311 7.13686 6.29882 7.14365 6.28452L8.68417 2.74476H6.39319V9.41205H8.32422C8.47816 9.41205 8.60267 9.53187 8.60267 9.67918C8.60267 9.82649 8.47816 9.94631 8.32422 9.94631H3.9064C3.75246 9.94631 3.62795 9.82649 3.62795 9.67918C3.62795 9.53187 3.75246 9.41205 3.9064 9.41205H5.83743V2.74476H3.48986L5.00208 6.28233C5.00887 6.29662 5.01453 6.31311 5.01793 6.3285V6.3296C5.01991 6.33538 5.02103 6.34201 5.02204 6.348C5.02218 6.34884 5.02232 6.34967 5.02246 6.35048C5.0226 6.35132 5.02275 6.35214 5.02289 6.35295C5.02386 6.35849 5.02472 6.36341 5.02472 6.36917V6.37247C5.02585 6.37797 5.02585 6.38346 5.02585 6.38896V6.39116V6.39555C5.02585 6.3983 5.02557 6.40105 5.02529 6.4038C5.025 6.40655 5.02472 6.4093 5.02472 6.41204V6.41424C5.02472 6.42084 5.02359 6.42743 5.02246 6.43403V6.43623C5.02019 6.45052 5.0168 6.46261 5.01227 6.4758V6.4769C5.00774 6.49009 5.00208 6.50219 4.99529 6.51428C4.99416 6.51428 4.99416 6.51538 4.99416 6.51538L4.98397 6.53187C4.98284 6.53297 4.98284 6.53407 4.98171 6.53517C4.98001 6.53791 4.97803 6.54039 4.97605 6.54286C4.97407 6.54533 4.97209 6.54781 4.97039 6.55056C4.97039 6.55166 4.96926 6.55166 4.96926 6.55275L4.96925 6.55276C4.96586 6.55716 4.96246 6.56155 4.95794 6.56595C4.95681 6.56595 4.95681 6.56705 4.95568 6.56815L4.94209 6.58134L4.93983 6.58354C4.937 6.58573 4.93445 6.58793 4.93191 6.59013C4.92936 6.59233 4.92681 6.59453 4.92398 6.59673L3.23858 7.9071C3.18764 7.94667 3.12652 7.96646 3.06426 7.96646C3.00314 7.96646 2.94088 7.94667 2.88995 7.9071L1.20454 6.59673C1.19888 6.59233 1.19322 6.58793 1.1887 6.58354L1.18643 6.58134C1.18417 6.57914 1.18191 6.57667 1.17964 6.57419C1.17738 6.57172 1.17511 6.56925 1.17285 6.56705L1.17059 6.56485C1.16606 6.56045 1.16153 6.55605 1.15814 6.55056C1.157 6.55056 1.157 6.54946 1.157 6.54946C1.15531 6.54671 1.15332 6.54396 1.15134 6.54121C1.14936 6.53846 1.14738 6.53572 1.14568 6.53297C1.14568 6.53242 1.1454 6.53214 1.14512 6.53187C1.14484 6.53159 1.14455 6.53132 1.14455 6.53077C1.14285 6.52802 1.14116 6.525 1.13946 6.52198C1.13776 6.51895 1.13606 6.51593 1.13437 6.51318C1.12078 6.489 1.1106 6.46261 1.10607 6.43403C1.1055 6.43073 1.10522 6.42743 1.10494 6.42414C1.10465 6.42084 1.10437 6.41754 1.1038 6.41424V6.41204C1.10267 6.40655 1.10267 6.39995 1.10267 6.39446V6.39006C1.10267 6.38661 1.10298 6.38346 1.10328 6.38046C1.10355 6.37772 1.1038 6.37509 1.1038 6.37247V6.36917C1.10494 6.35598 1.1072 6.34279 1.1106 6.3296V6.3285C1.11399 6.31311 1.11852 6.29882 1.12531 6.28452L2.82203 2.38419C2.86618 2.28525 2.96692 2.22039 3.07898 2.22039H3.08011C3.10162 2.22039 3.12312 2.22369 3.1435 2.22809C3.17519 2.21709 3.20915 2.2105 3.24424 2.2105H8.98865C9.01695 2.2105 9.04525 2.21489 9.07128 2.22259C9.07581 2.22259 9.08034 2.22231 9.08486 2.22204C9.08939 2.22177 9.09392 2.22149 9.09845 2.22149H9.09958C9.21164 2.22149 9.31238 2.28635 9.35539 2.38639L11.0249 6.28233C11.0374 6.30981 11.0453 6.33949 11.0476 6.37027V6.37247C11.0487 6.37797 11.0487 6.38346 11.0487 6.38896V6.39116V6.39446C11.0487 6.39775 11.0484 6.40078 11.0482 6.4038C11.0479 6.40682 11.0476 6.40985 11.0476 6.41314V6.41424C11.0476 6.42084 11.0465 6.42743 11.0453 6.43403V6.43513C11.0397 6.46371 11.0306 6.49009 11.017 6.51428C11.0136 6.52087 11.0102 6.52637 11.0068 6.53187C11.0068 6.53242 11.0066 6.53269 11.0063 6.53297C11.006 6.53324 11.0057 6.53352 11.0057 6.53407C11.0023 6.53956 10.9989 6.54506 10.9944 6.55056ZM7.81713 6.12293H10.356L9.09505 3.18558L7.81713 6.12293ZM4.33766 6.12293L3.07671 3.18558L1.79879 6.12293H4.33766ZM2.16666 6.65719L3.06653 7.35635L3.96639 6.65719H2.16666ZM8.18613 6.65719L9.086 7.35635L9.98586 6.65719H8.18613Z" fill="white"/>
</g>
<defs>
<clipPath id="clip0_2247_179">
<rect y="-0.000244141" width="12.1563" height="12.1563" rx="1.08056" fill="white"/>
</clipPath>
</defs>
</svg>
