<svg width="13" height="13" viewBox="0 0 13 13" fill="none" xmlns="http://www.w3.org/2000/svg">
<path d="M4.8453 1.67444C5.15471 1.59375 5.45141 1.81228 5.51164 2.13055C5.56689 2.42025 5.36633 2.69313 5.08565 2.76934C4.38517 2.95766 3.75096 3.34177 3.25529 3.87789C2.75963 4.41402 2.42245 5.08058 2.2822 5.80161C2.14195 6.52264 2.20427 7.26913 2.46205 7.95599C2.71983 8.64284 3.1627 9.24243 3.74018 9.68642C4.31766 10.1304 5.00652 10.4009 5.72825 10.4671C6.44997 10.5334 7.17552 10.3926 7.82219 10.0609C8.46887 9.72925 9.01065 9.21999 9.38579 8.59121C9.76093 7.96242 9.95433 7.23939 9.94394 6.50454C9.94892 6.22437 10.165 5.97502 10.4384 5.9442C10.7716 5.90666 11.0528 6.15209 11.0495 6.49165L11.049 6.56057C11.049 6.62053 11.0479 6.67993 11.0457 6.73988C11.0484 6.77045 11.0484 6.80121 11.0457 6.83178L11.0412 6.90014C10.9551 8.19455 10.3804 9.4055 9.43661 10.2813C8.4928 11.157 7.2525 11.6302 5.97355 11.6025C4.77123 11.5773 3.61865 11.1111 2.72925 10.2903C1.83986 9.4694 1.27391 8.34948 1.13623 7.13792C0.998542 5.92635 1.29845 4.70523 1.9804 3.70071C2.66236 2.69619 3.68016 1.97632 4.8453 1.67444Z" fill="white"/>
<path d="M8.25015 7.04305C8.18523 7.38325 8.04148 7.70344 7.83045 7.97788C7.61942 8.25232 7.347 8.47334 7.03511 8.62317C6.72322 8.773 6.38056 8.84745 6.03469 8.84054C5.68883 8.83363 5.34941 8.74555 5.04374 8.58339C4.73806 8.42122 4.47467 8.1895 4.27474 7.90685C4.07481 7.6242 3.94393 7.29852 3.89262 6.95601C3.84131 6.61349 3.871 6.2637 3.97931 5.93476C4.08762 5.60583 4.27152 5.30693 4.51623 5.06212C4.9306 4.64713 5.49265 4.41392 6.07875 4.4138C6.49314 4.4138 6.79702 4.5023 7.18379 4.70698C7.18379 4.70698 7.26666 4.75677 7.32192 4.80102C7.26666 4.60741 7.19594 4.0841 7.18379 3.86062C7.17269 3.48549 7.16809 3.11019 7.16997 2.7349V1.0726C7.16997 0.784947 7.40866 0.552612 7.70315 0.552612C7.76006 0.552612 7.81697 0.561463 7.87167 0.579165L10.3978 1.51348C10.6442 1.59369 10.7276 1.64071 10.8094 1.70875C10.8912 1.77624 10.952 1.85811 10.9917 1.95547C11.0321 2.05283 11.0514 2.14466 11.0514 2.39857V3.04025C11.0514 3.3268 10.8067 3.56024 10.5127 3.56024C10.4555 3.56012 10.3986 3.55097 10.3442 3.53314L9.58227 3.28587L9.49884 3.25821C9.25739 3.18076 9.15738 3.14757 9.06346 3.11438C8.96699 3.08085 8.87222 3.04263 8.77946 2.99987C8.73958 2.98147 8.70033 2.96173 8.66177 2.94068C8.60763 2.91302 8.53083 2.87209 8.37391 2.7952L8.28883 2.75426L8.2949 6.62651C8.2949 6.76757 8.27943 6.90697 8.2496 7.04305H8.25015Z" fill="white"/>
</svg>
