<svg width="13" height="13" viewBox="0 0 13 13" fill="none" xmlns="http://www.w3.org/2000/svg">
<path d="M6.07875 -0.000244141C4.467 0.000335834 2.92143 0.640895 1.78176 1.78064C0.642078 2.92039 0.0015565 4.46605 0.000976563 6.0779C0.000976562 9.43316 2.72369 12.156 6.07875 12.156C9.43382 12.156 12.1573 9.43316 12.1573 6.0779C12.1573 2.72263 9.43382 -0.000244141 6.07875 -0.000244141ZM3.97017 6.97142C4.05475 7.05726 4.10217 7.17293 4.10217 7.29345C4.10217 7.41397 4.05475 7.52964 3.97017 7.61548C3.92806 7.65817 3.87786 7.69203 3.8225 7.71508C3.76714 7.73812 3.70775 7.74989 3.64779 7.74969C3.58783 7.74989 3.52843 7.73812 3.47307 7.71508C3.41772 7.69203 3.36752 7.65817 3.32541 7.61548L2.11029 6.40029C2.02549 6.31442 1.97793 6.19859 1.97793 6.0779C1.97793 5.9572 2.02549 5.84137 2.11029 5.7555L3.32541 4.54031C3.41128 4.4555 3.5271 4.40794 3.64779 4.40794C3.76847 4.40794 3.8843 4.4555 3.97017 4.54031C4.05475 4.62615 4.10217 4.74182 4.10217 4.86234C4.10217 4.98286 4.05475 5.09853 3.97017 5.18437L3.07597 6.0779L3.97017 6.97142ZM7.10642 4.83791L5.89058 7.67675C5.84219 7.78653 5.75261 7.8729 5.64115 7.91724C5.52968 7.96159 5.40525 7.96035 5.29469 7.91381C5.23917 7.89041 5.18888 7.85616 5.14678 7.81306C5.10468 7.76996 5.07162 7.71887 5.04954 7.66282C5.02746 7.60676 5.0168 7.54685 5.01819 7.48662C5.01958 7.42638 5.033 7.36703 5.05764 7.31205L6.27349 4.4732C6.29644 4.41802 6.3302 4.36798 6.37279 4.32605C6.41538 4.28411 6.46593 4.25113 6.52146 4.22903C6.57699 4.20694 6.63639 4.19619 6.69614 4.19741C6.75589 4.19863 6.8148 4.2118 6.86938 4.23615C6.97983 4.28541 7.06654 4.37606 7.11086 4.48858C7.15519 4.60111 7.15359 4.72654 7.10642 4.83791ZM10.0479 6.40029L8.83209 7.61548C8.79007 7.65808 8.73999 7.69189 8.68476 7.71494C8.62954 7.73798 8.57028 7.74979 8.51044 7.74969C8.45048 7.74989 8.39109 7.73812 8.33573 7.71508C8.28038 7.69203 8.23018 7.65817 8.18807 7.61548C8.10348 7.52964 8.05606 7.41397 8.05606 7.29345C8.05606 7.17293 8.10348 7.05726 8.18807 6.97142L9.08154 6.0779L8.1888 5.18437C8.10421 5.09853 8.05679 4.98286 8.05679 4.86234C8.05679 4.74182 8.10421 4.62615 8.1888 4.54031C8.27463 4.45572 8.3903 4.4083 8.51081 4.4083C8.63132 4.4083 8.74699 4.45572 8.83282 4.54031L10.0487 5.7555C10.1335 5.84137 10.181 5.9572 10.181 6.0779C10.181 6.19859 10.1327 6.31442 10.0479 6.40029Z" fill="white"/>
</svg>
