<svg width="13" height="13" viewBox="0 0 13 13" fill="none" xmlns="http://www.w3.org/2000/svg">
<g clip-path="url(#clip0_2247_185)">
<path d="M0.551758 1.17029V11.9839C0.551826 12.0074 0.558455 12.0303 0.570811 12.0498C0.583168 12.0693 0.600703 12.0845 0.621218 12.0935C0.641733 12.1025 0.664314 12.105 0.68613 12.1005C0.707945 12.096 0.728025 12.0848 0.74385 12.0684L6.07734 6.57737L0.74385 1.08582C0.728025 1.06934 0.707945 1.05817 0.68613 1.0537C0.664314 1.04923 0.641733 1.05165 0.621218 1.06067C0.600703 1.0697 0.583168 1.08491 0.570811 1.10441C0.558455 1.12391 0.551826 1.14683 0.551758 1.17029Z" fill="white"/>
<path d="M8.28792 4.42346L1.82184 0.516672L1.8178 0.514184C1.70642 0.447855 1.60057 0.613125 1.6918 0.709303L6.76049 6.02448L8.28792 4.42346Z" fill="white"/>
<path d="M1.6921 12.4445C1.60036 12.5406 1.70621 12.7059 1.8181 12.6396L1.82214 12.6371L8.28792 8.73069L6.76044 7.12927L1.6921 12.4445Z" fill="white"/>
<path d="M11.2343 5.93419L9.43045 4.91919L7.73438 6.57725L9.43045 8.23454L11.2343 7.22031C11.725 6.94328 11.725 6.21122 11.2343 5.93419Z" fill="white"/>
</g>
<defs>
<clipPath id="clip0_2247_185">
<rect width="12.1563" height="12.1563" fill="white" transform="translate(0 0.498779)"/>
</clipPath>
</defs>
</svg>
