<svg width="13" height="13" viewBox="0 0 13 13" fill="none" xmlns="http://www.w3.org/2000/svg">
<path d="M10.0455 4.90603C9.14093 4.90603 8.77111 4.22799 9.22089 3.39632C9.48076 2.91428 9.32584 2.2998 8.87106 2.02434L8.0065 1.49992C7.61169 1.25095 7.10195 1.39927 6.86707 1.81775L6.81209 1.9184C6.36232 2.75006 5.62269 2.75006 5.16792 1.9184L5.11294 1.81775C4.88806 1.39927 4.37831 1.25095 3.98351 1.49992L3.11894 2.02434C2.66417 2.2998 2.50925 2.91957 2.76912 3.40162C3.22389 4.22799 2.85407 4.90603 1.94953 4.90603C1.42979 4.90603 1 5.3563 1 5.91251V6.84482C1 7.39573 1.42479 7.85129 1.94953 7.85129C2.85407 7.85129 3.22389 8.52934 2.76912 9.361C2.50925 9.84305 2.66417 10.4575 3.11894 10.733L3.98351 11.2574C4.37831 11.5064 4.88806 11.3581 5.12294 10.9396L5.17791 10.8389C5.62769 10.0073 6.36732 10.0073 6.82209 10.8389L6.87706 10.9396C7.11194 11.3581 7.62169 11.5064 8.01649 11.2574L8.88106 10.733C9.33583 10.4575 9.49075 9.83775 9.23088 9.361C8.77611 8.52934 9.14593 7.85129 10.0505 7.85129C10.5702 7.85129 11 7.40103 11 6.84482V5.91251C10.995 5.36159 10.5702 4.90603 10.0455 4.90603ZM5.9975 8.10026C5.10295 8.10026 4.37331 7.32687 4.37331 6.37866C4.37331 5.43046 5.10295 4.65706 5.9975 4.65706C6.89205 4.65706 7.62169 5.43046 7.62169 6.37866C7.62169 7.32687 6.89205 8.10026 5.9975 8.10026Z" fill="white"/>
</svg>
