<svg width="13" height="13" viewBox="0 0 13 13" fill="none" xmlns="http://www.w3.org/2000/svg">
<g clip-path="url(#clip0_2247_248)">
<path d="M3.88312 5.30187C4.28332 5.2121 4.59601 4.89941 4.68578 4.49921L5.30816 1.69849C5.49143 0.876381 6.66214 0.876381 6.84466 1.69849L7.46704 4.49921C7.55681 4.89941 7.86949 5.2121 8.2697 5.30187L11.0704 5.92425C11.8925 6.10752 11.8925 7.27822 11.0704 7.46075L8.2697 8.08313C7.86949 8.1729 7.55681 8.48558 7.46704 8.88579L6.84466 11.6865C6.66139 12.5086 5.49068 12.5086 5.30816 11.6865L4.68578 8.88579C4.64176 8.68971 4.54295 8.51016 4.40085 8.36806C4.25875 8.22596 4.0792 8.12715 3.88312 8.08313L1.0824 7.46075C0.260293 7.27822 0.260293 6.10677 1.0824 5.92425L3.88312 5.30187Z" fill="white"/>
</g>
<defs>
<clipPath id="clip0_2247_248">
<rect width="12.1563" height="12.1563" fill="white" transform="translate(0 0.614258)"/>
</clipPath>
</defs>
</svg>
