<svg width="22" height="22" viewBox="0 0 22 22" fill="none" xmlns="http://www.w3.org/2000/svg">
<rect width="22" height="22" rx="11" fill="white" fill-opacity="0.2"/>
<g clip-path="url(#clip0_1718_756)">
<path d="M11 15.875C12.2929 15.875 13.5329 15.3614 14.4471 14.4471C15.3614 13.5329 15.875 12.2929 15.875 11C15.875 9.70707 15.3614 8.46709 14.4471 7.55285C13.5329 6.63861 12.2929 6.125 11 6.125C9.70707 6.125 8.46709 6.63861 7.55285 7.55285C6.63861 8.46709 6.125 9.70707 6.125 11C6.125 12.2929 6.63861 13.5329 7.55285 14.4471C8.46709 15.3614 9.70707 15.875 11 15.875Z" stroke="white" stroke-width="1.5" stroke-linecap="round" stroke-linejoin="round"/>
<path d="M16.355 16.355L16.257 16.257M16.257 5.743L16.355 5.645M5.646 16.354L5.744 16.256M11 3.56V3.5M11 18.5V18.44M3.56 11H3.5M18.5 11H18.44M5.742 5.742L5.645 5.645L5.743 5.743L5.742 5.742Z" stroke="white" stroke-width="1.875" stroke-linecap="round" stroke-linejoin="round"/>
</g>
<defs>
<clipPath id="clip0_1718_756">
<rect width="18" height="18" fill="white" transform="translate(2 2)"/>
</clipPath>
</defs>
</svg>
