<svg width="13" height="13" viewBox="0 0 13 13" fill="none" xmlns="http://www.w3.org/2000/svg">
<path d="M6.17095 12.1568H5.9806C5.56035 11.9141 5.14117 11.6692 4.71878 11.4296C4.67387 11.404 4.61399 11.3944 4.56159 11.3933C4.13385 11.3901 3.70611 11.389 3.27945 11.3933C3.09445 11.3944 2.96506 11.3238 2.8731 11.1602C2.66671 10.7912 2.45391 10.4255 2.23791 10.0609C2.20369 10.0031 2.15022 9.9486 2.09248 9.91439C1.7289 9.69838 1.36319 9.48558 0.993193 9.2792C0.829583 9.1883 0.756868 9.05998 0.757938 8.87499C0.762215 8.44725 0.761146 8.01951 0.757938 7.59178C0.757938 7.53189 0.739759 7.46666 0.709817 7.41427C0.500226 7.04213 0.287427 6.67214 0.0703507 6.30429C-0.0216127 6.14816 -0.022682 6.0038 0.0703507 5.84768C0.286358 5.4841 0.497018 5.11625 0.704471 4.7484C0.73762 4.68958 0.757938 4.6158 0.757938 4.54843C0.762215 4.12069 0.762215 3.69296 0.760076 3.26522C0.760076 3.08985 0.828514 2.9658 0.983569 2.87812C1.35891 2.66639 1.73211 2.44931 2.10317 2.23116C2.1545 2.20122 2.20262 2.15203 2.23256 2.1007C2.4475 1.73606 2.66244 1.37141 2.86775 1.00142C2.96292 0.829257 3.09659 0.754404 3.29121 0.756542C3.71039 0.761889 4.13064 0.76082 4.54982 0.756542C4.61719 0.756542 4.69098 0.736225 4.74979 0.704145C5.11551 0.498831 5.47908 0.290309 5.83838 0.0753715C6.00306 -0.023008 6.1517 -0.023008 6.31638 0.0753715C6.67995 0.291379 7.04781 0.50097 7.41566 0.709491C7.46806 0.738364 7.53329 0.757612 7.59317 0.757612C8.02091 0.761889 8.44864 0.761889 8.87531 0.757612C9.06031 0.756542 9.1897 0.829257 9.28059 0.992867C9.48698 1.36179 9.69978 1.72857 9.91578 2.09215C9.95 2.14989 10.0045 2.20336 10.0623 2.23758C10.4269 2.45252 10.7926 2.66532 11.1616 2.87277C11.3241 2.96473 11.3958 3.09412 11.3947 3.27912C11.3904 3.70686 11.3925 4.13459 11.3947 4.56233C11.3947 4.61473 11.4054 4.67461 11.431 4.71952C11.6706 5.14191 11.9144 5.5611 12.1571 5.98135V6.17169C11.9144 6.59194 11.6706 7.01112 11.4321 7.43244C11.4064 7.47736 11.3947 7.53617 11.3947 7.58857C11.3915 8.01523 11.3904 8.44297 11.3947 8.86964C11.3968 9.05998 11.3209 9.19044 11.1541 9.28347C10.7852 9.48986 10.4205 9.70266 10.0559 9.91759C10.0013 9.94967 9.95 10.001 9.91792 10.0545C9.70512 10.4148 9.49125 10.7752 9.29022 11.142C9.1897 11.3238 9.04962 11.3965 8.84751 11.3933C8.42833 11.3869 8.00915 11.3901 7.58996 11.3933C7.53757 11.3933 7.47875 11.405 7.43384 11.4307C7.01252 11.6702 6.59334 11.9141 6.17309 12.1557L6.17095 12.1568ZM7.84447 5.9375C7.82736 5.87976 7.81773 5.84982 7.81025 5.81988C7.73005 5.50121 7.65305 5.18255 7.57072 4.86495C7.51618 4.65322 7.32691 4.5356 7.13122 4.58586C6.94087 4.63505 6.83287 4.82325 6.87992 5.0307C6.91093 5.16544 6.94515 5.29911 6.9783 5.43384C7.13122 6.04765 7.28306 6.66145 7.43812 7.27418C7.48517 7.46238 7.60814 7.56825 7.77389 7.57467C7.94926 7.58215 8.07651 7.48805 8.14174 7.29985C8.16741 7.22499 8.19093 7.15014 8.2166 7.07528C8.32674 6.74593 8.43688 6.41657 8.55451 6.06796C8.57376 6.12143 8.58659 6.15351 8.59728 6.18666C8.72347 6.56521 8.84858 6.94375 8.9769 7.32123C9.03465 7.49126 9.16938 7.58215 9.3362 7.57574C9.49446 7.56932 9.62064 7.46987 9.66449 7.29878C9.85697 6.54061 10.0473 5.78138 10.2334 5.02108C10.2826 4.82004 10.1681 4.63611 9.98101 4.58693C9.7896 4.53667 9.60033 4.65109 9.54365 4.85319C9.51585 4.95264 9.49446 5.05209 9.4688 5.15261C9.40464 5.40497 9.34048 5.65841 9.27097 5.93643C9.25065 5.88297 9.24103 5.8573 9.2314 5.83164C9.12126 5.50228 9.01219 5.17185 8.89991 4.8425C8.83575 4.65429 8.69459 4.55805 8.51388 4.57944C8.35561 4.59762 8.25937 4.69279 8.21018 4.84143C8.09149 5.19752 7.97279 5.55254 7.8434 5.93643L7.84447 5.9375ZM3.6227 5.99525C3.61415 5.99846 3.60666 6.00166 3.59811 6.0038C3.57565 5.97279 3.5532 5.94178 3.53181 5.9097C3.27945 5.53115 3.02601 5.15368 2.77579 4.77406C2.70735 4.67033 2.62287 4.59227 2.49455 4.57837C2.26464 4.55378 2.09461 4.71525 2.09355 4.96868C2.09141 5.70866 2.09355 6.44865 2.09355 7.18863C2.09355 7.20467 2.09355 7.22071 2.09461 7.23568C2.11493 7.441 2.26999 7.58108 2.46782 7.57253C2.65816 7.56504 2.80145 7.41747 2.80466 7.2143C2.80894 6.89777 2.80573 6.58125 2.80573 6.26472C2.80573 6.2273 2.80573 6.1888 2.80573 6.11608C2.84957 6.1749 2.8731 6.20377 2.89341 6.23478C3.10407 6.55024 3.31473 6.86676 3.52539 7.18222C3.57779 7.26135 3.62805 7.34155 3.68366 7.41854C3.77883 7.549 3.92533 7.60247 4.06969 7.5629C4.21405 7.52441 4.31243 7.40464 4.33168 7.24531C4.33596 7.2143 4.33596 7.18222 4.33596 7.15014C4.33596 6.43047 4.33596 5.70973 4.33596 4.99007C4.33596 4.87137 4.31457 4.76016 4.22474 4.67568C4.11674 4.57516 3.99056 4.54522 3.85261 4.59869C3.70504 4.65643 3.62591 4.76978 3.62484 4.92698C3.62164 5.282 3.62484 5.63809 3.62484 5.99311L3.6227 5.99525ZM5.48443 5.28841C5.53897 5.28841 5.58174 5.28841 5.62451 5.28841C5.83838 5.28841 6.05225 5.29269 6.26505 5.28627C6.46929 5.28093 6.62114 5.1248 6.62221 4.93232C6.62328 4.74091 6.47678 4.58051 6.28109 4.57837C5.88971 4.57302 5.49833 4.57409 5.10695 4.57837C4.92089 4.58051 4.77118 4.72594 4.77011 4.90987C4.76583 5.68514 4.76583 6.46041 4.77011 7.23568C4.77011 7.42068 4.91768 7.56932 5.10267 7.57146C5.49833 7.57681 5.89399 7.57681 6.28964 7.57146C6.46395 7.56932 6.60296 7.42924 6.62221 7.25707C6.64039 7.09132 6.53773 6.93092 6.37519 6.8828C6.31959 6.86676 6.25863 6.86248 6.19982 6.86142C5.96349 6.85928 5.72824 6.86142 5.48871 6.86142V6.43047C5.61382 6.43047 5.73145 6.43047 5.84907 6.43047C6.08005 6.42833 6.24045 6.28397 6.24259 6.07652C6.24366 5.86907 6.08326 5.72043 5.85442 5.71829C5.73359 5.71829 5.61168 5.71829 5.48657 5.71829V5.28734L5.48443 5.28841Z" fill="white"/>
</svg>
