<svg width="365" height="57" viewBox="0 0 365 57" fill="none" xmlns="http://www.w3.org/2000/svg">
<rect width="365" height="57" fill="#121317"/>
<path d="M256.317 33.8703C256.317 33.4527 256.274 33.0781 256.188 32.7465C256.115 32.4026 255.961 32.0833 255.728 31.7885C255.507 31.4937 255.169 31.199 254.714 30.9042C254.26 30.5972 253.652 30.2778 252.891 29.9462C251.933 29.5532 250.993 29.111 250.072 28.6198C249.151 28.1162 248.322 27.5328 247.585 26.8696C246.86 26.1941 246.277 25.408 245.835 24.5114C245.392 23.6026 245.171 22.5463 245.171 21.3427C245.171 20.1882 245.392 19.1503 245.835 18.2292C246.289 17.2958 246.909 16.5036 247.695 15.8526C248.494 15.1894 249.433 14.6858 250.514 14.3419C251.595 13.9858 252.774 13.8077 254.051 13.8077C255.746 13.8077 257.238 14.1516 258.528 14.8394C259.83 15.5149 260.843 16.479 261.568 17.7318C262.305 18.9723 262.673 20.44 262.673 22.1349H256.391C256.391 21.4594 256.305 20.8637 256.133 20.3478C255.961 19.832 255.691 19.4267 255.322 19.1319C254.966 18.8372 254.493 18.6898 253.904 18.6898C253.376 18.6898 252.927 18.8126 252.559 19.0582C252.203 19.3039 251.933 19.6355 251.748 20.0531C251.564 20.4584 251.472 20.9067 251.472 21.3979C251.472 21.8033 251.564 22.1717 251.748 22.5033C251.933 22.8227 252.184 23.1236 252.504 23.4061C252.835 23.6885 253.216 23.9587 253.646 24.2167C254.088 24.4746 254.561 24.7264 255.064 24.972C256.28 25.4264 257.355 25.9361 258.289 26.5011C259.234 27.0538 260.026 27.6863 260.665 28.3987C261.304 29.0988 261.783 29.8971 262.102 30.7937C262.434 31.6903 262.599 32.7035 262.599 33.8335C262.599 35.0371 262.403 36.1056 262.01 37.0391C261.629 37.9725 261.07 38.7647 260.333 39.4156C259.597 40.0543 258.706 40.5394 257.662 40.871C256.63 41.2027 255.464 41.3685 254.162 41.3685C252.97 41.3685 251.797 41.1965 250.643 40.8526C249.501 40.4964 248.463 39.956 247.529 39.2314C246.608 38.4945 245.871 37.5549 245.319 36.4127C244.766 35.2582 244.49 33.8887 244.49 32.3044H250.827C250.827 33.0904 250.889 33.7536 251.011 34.294C251.134 34.8344 251.325 35.2705 251.583 35.6021C251.853 35.9214 252.197 36.1548 252.614 36.3021C253.032 36.4372 253.548 36.5048 254.162 36.5048C254.727 36.5048 255.163 36.3881 255.47 36.1548C255.789 35.9091 256.01 35.5898 256.133 35.1968C256.256 34.7915 256.317 34.3493 256.317 33.8703ZM275.053 21.0663V25.3773H264.515V21.0663H275.053ZM266.431 16.1105H272.493V34.4967C272.493 35.0248 272.529 35.4363 272.603 35.731C272.689 36.0135 272.843 36.2162 273.064 36.339C273.297 36.4495 273.623 36.5048 274.04 36.5048C274.335 36.5048 274.574 36.4987 274.759 36.4864C274.955 36.4618 275.127 36.4311 275.275 36.3943L275.238 40.8342C274.759 41.0061 274.261 41.1351 273.745 41.2211C273.242 41.3193 272.689 41.3685 272.087 41.3685C270.896 41.3685 269.877 41.1597 269.029 40.7421C268.194 40.3245 267.549 39.6674 267.095 38.7708C266.653 37.8742 266.431 36.7074 266.431 35.2705V16.1105ZM286.936 36.1548V21.0663H292.997V41H287.342L286.936 36.1548ZM287.489 32.1017L288.981 32.0649C288.981 33.4036 288.846 34.6441 288.576 35.7863C288.306 36.9162 287.913 37.8988 287.397 38.734C286.881 39.5691 286.248 40.2201 285.499 40.6868C284.762 41.1412 283.909 41.3685 282.938 41.3685C282.103 41.3685 281.342 41.2334 280.654 40.9632C279.979 40.6807 279.389 40.2447 278.885 39.6551C278.394 39.0533 278.007 38.2857 277.725 37.3522C277.455 36.4065 277.319 35.2766 277.319 33.9624V21.0663H283.362V33.9993C283.362 34.4414 283.393 34.8222 283.454 35.1415C283.528 35.4608 283.626 35.731 283.749 35.9521C283.884 36.1609 284.056 36.3206 284.265 36.4311C284.474 36.5294 284.719 36.5785 285.002 36.5785C285.641 36.5785 286.144 36.382 286.513 35.9889C286.881 35.5959 287.133 35.0617 287.268 34.3861C287.415 33.7106 287.489 32.9492 287.489 32.1017ZM305.507 36.4311V12.7023H311.568V41H306.133L305.507 36.4311ZM295.54 32.0096V30.1489C295.54 28.5154 295.675 27.1091 295.945 25.93C296.228 24.7386 296.639 23.7561 297.179 22.9823C297.732 22.2086 298.42 21.6374 299.243 21.269C300.078 20.8882 301.03 20.6979 302.098 20.6979C303.007 20.6979 303.787 20.9497 304.438 21.4532C305.089 21.9568 305.636 22.6568 306.078 23.5534C306.532 24.45 306.901 25.5001 307.183 26.7038C307.478 27.9074 307.699 29.197 307.846 30.5726V31.8254C307.674 33.115 307.447 34.337 307.165 35.4915C306.882 36.6338 306.514 37.647 306.059 38.5313C305.617 39.4156 305.064 40.1096 304.401 40.6131C303.75 41.1167 302.97 41.3685 302.062 41.3685C300.981 41.3685 300.035 41.1781 299.224 40.7973C298.414 40.4043 297.732 39.8209 297.179 39.0472C296.639 38.2611 296.228 37.2847 295.945 36.1179C295.675 34.9511 295.54 33.5817 295.54 32.0096ZM301.583 30.1489V32.0096C301.583 32.8693 301.607 33.594 301.656 34.1835C301.718 34.7607 301.822 35.2275 301.969 35.5836C302.129 35.9398 302.344 36.1977 302.614 36.3574C302.884 36.5048 303.228 36.5785 303.646 36.5785C304.223 36.5785 304.696 36.4065 305.064 36.0626C305.433 35.7187 305.697 35.2275 305.857 34.5888C306.016 33.9379 306.059 33.1764 305.986 32.3044V30.0567C306.035 29.2953 306.01 28.632 305.912 28.0671C305.826 27.4898 305.679 27.0108 305.47 26.6301C305.273 26.2493 305.021 25.9668 304.714 25.7826C304.42 25.5861 304.076 25.4878 303.683 25.4878C303.29 25.4878 302.952 25.5677 302.669 25.7273C302.399 25.8747 302.184 26.1265 302.025 26.4827C301.877 26.8389 301.767 27.3179 301.693 27.9197C301.619 28.5215 301.583 29.2646 301.583 30.1489ZM321.203 21.0663V41H315.16V21.0663H321.203ZM314.866 15.9263C314.866 15.042 315.166 14.3174 315.768 13.7524C316.382 13.1874 317.175 12.905 318.145 12.905C319.127 12.905 319.92 13.1874 320.521 13.7524C321.123 14.3174 321.424 15.042 321.424 15.9263C321.424 16.8106 321.123 17.5353 320.521 18.1002C319.92 18.6652 319.127 18.9477 318.145 18.9477C317.175 18.9477 316.382 18.6652 315.768 18.1002C315.166 17.5353 314.866 16.8106 314.866 15.9263ZM324.169 31.9727V30.112C324.169 28.5399 324.366 27.1705 324.759 26.0037C325.152 24.8246 325.711 23.8482 326.435 23.0744C327.16 22.2884 328.026 21.6989 329.033 21.3058C330.04 20.9005 331.164 20.6979 332.404 20.6979C333.669 20.6979 334.805 20.9005 335.812 21.3058C336.82 21.6989 337.685 22.2884 338.41 23.0744C339.135 23.8482 339.694 24.8246 340.087 26.0037C340.48 27.1705 340.676 28.5399 340.676 30.112V31.9727C340.676 33.5326 340.48 34.902 340.087 36.0811C339.694 37.2601 339.135 38.2427 338.41 39.0287C337.698 39.8148 336.832 40.4043 335.812 40.7973C334.805 41.1781 333.682 41.3685 332.441 41.3685C331.201 41.3685 330.071 41.1781 329.051 40.7973C328.032 40.4043 327.16 39.8148 326.435 39.0287C325.711 38.2427 325.152 37.2601 324.759 36.0811C324.366 34.902 324.169 33.5326 324.169 31.9727ZM330.23 30.112V31.9727C330.23 32.8202 330.279 33.5448 330.378 34.1467C330.476 34.7362 330.617 35.2152 330.801 35.5836C330.998 35.9398 331.231 36.1977 331.501 36.3574C331.772 36.5171 332.085 36.5969 332.441 36.5969C332.895 36.5969 333.264 36.5171 333.546 36.3574C333.841 36.1977 334.068 35.9398 334.228 35.5836C334.388 35.2152 334.492 34.7362 334.541 34.1467C334.603 33.5448 334.633 32.8202 334.633 31.9727V30.112C334.633 29.2768 334.584 28.5706 334.486 27.9934C334.4 27.4038 334.259 26.9248 334.062 26.5564C333.878 26.1756 333.645 25.9054 333.362 25.7458C333.08 25.5738 332.76 25.4878 332.404 25.4878C332.06 25.4878 331.753 25.5738 331.483 25.7458C331.213 25.9054 330.986 26.1756 330.801 26.5564C330.617 26.9248 330.476 27.4038 330.378 27.9934C330.279 28.5706 330.23 29.2768 330.23 30.112Z" fill="#9600FF"/>
<path d="M82.3669 24.0968C82.3669 23.1662 82.2788 22.4367 82.1027 21.9085C81.9267 21.3551 81.6123 20.9401 81.1595 20.6634C80.7319 20.3867 80.254 20.2106 79.7257 20.1352C79.2227 20.0345 78.5184 19.9842 77.6128 19.9842V28.2849C78.3171 28.2849 78.9334 28.222 79.4616 28.0962C80.015 27.9705 80.5181 27.7567 80.9708 27.4548C81.4236 27.153 81.7632 26.7254 81.9896 26.172C82.2411 25.5935 82.3669 24.9018 82.3669 24.0968ZM77.6128 35.3405C77.6128 37.3779 77.2355 38.8368 76.4809 39.7172C75.7263 40.5724 74.5693 41 73.0098 41C71.4502 41 70.3057 40.6101 69.5763 39.8304C68.8468 39.0254 68.4821 37.6169 68.4821 35.6046V19.6824C68.4821 18.148 68.8972 17.0161 69.7272 16.2867C70.5573 15.5321 71.6515 15.1548 73.0098 15.1548H79.7257C81.3607 15.1548 82.8699 15.3811 84.2534 15.8339C85.6368 16.2615 86.8316 16.8778 87.8377 17.6827C88.869 18.4625 89.6614 19.456 90.2148 20.6634C90.7933 21.8456 91.0826 23.1662 91.0826 24.6251C91.0826 26.411 90.5669 27.9705 89.5356 29.3036C88.5043 30.6116 87.146 31.5926 85.4607 32.2466C83.7755 32.9006 81.8764 33.2276 79.7635 33.2276H77.6128V35.3405ZM94.2215 17.7582C94.2215 16.9281 94.5737 16.2489 95.278 15.7207C96.0074 15.1673 97.0261 14.8907 98.3341 14.8907C101.076 14.8907 102.447 15.8465 102.447 17.7582C102.447 18.8146 102.095 19.5566 101.39 19.9842C100.711 20.4118 99.6924 20.6257 98.3341 20.6257C97.1519 20.6257 96.1709 20.3993 95.3912 19.9465C94.6114 19.4937 94.2215 18.7643 94.2215 17.7582ZM102.409 36.9629C102.409 38.4721 102.095 39.5285 101.466 40.1322C100.837 40.7107 99.7302 41 98.1455 41C96.6614 41 95.6427 40.6604 95.0893 39.9813C94.5611 39.277 94.297 38.1325 94.297 36.5478V27.2662C94.297 25.9834 94.6366 24.9521 95.3157 24.1723C96.02 23.3925 96.9507 23.0027 98.1078 23.0027C99.466 23.0027 100.522 23.3045 101.277 23.9082C102.032 24.4867 102.409 25.5683 102.409 27.153V36.9629ZM116.999 26.8889C116.999 26.3103 116.672 26.0211 116.018 26.0211C115.54 26.0211 115.112 26.2852 114.735 26.8134C114.358 27.3416 114.068 28.0082 113.867 28.8131C113.666 29.5929 113.565 30.4104 113.565 31.2656C113.565 32.5233 113.943 33.542 114.697 34.3217C115.477 35.1015 116.521 35.4914 117.829 35.4914C119.112 35.4914 120.218 35.3405 121.149 35.0386C121.526 34.938 121.979 34.7494 122.507 34.4727C123.061 34.196 123.451 34.0576 123.677 34.0576C124.029 34.0576 124.319 34.1205 124.545 34.2463C124.771 34.372 124.922 34.523 124.998 34.699C125.098 34.8751 125.149 35.0638 125.149 35.265C125.149 35.6171 125.023 36.0448 124.771 36.5478C124.545 37.0509 124.18 37.5791 123.677 38.1325C123.174 38.6859 122.583 39.2015 121.904 39.6794C121.25 40.1322 120.432 40.5095 119.451 40.8113C118.47 41.1132 117.439 41.2641 116.357 41.2641C113.238 41.2641 110.673 40.434 108.66 38.7739C106.648 37.0886 105.642 34.7871 105.642 31.8693C105.642 30.0079 106.095 28.3855 107 27.0021C107.931 25.5935 109.201 24.537 110.811 23.8327C112.421 23.1033 114.27 22.7385 116.357 22.7385C118.345 22.7385 119.98 22.9775 121.262 23.4554C122.57 23.9082 123.501 24.5244 124.054 25.3042C124.608 26.084 124.884 27.0146 124.884 28.0962C124.884 28.5742 124.784 29.0647 124.583 29.5677C124.407 30.0708 124.117 30.5739 123.715 31.0769C123.338 31.58 122.772 31.995 122.017 32.322C121.262 32.6239 120.382 32.7748 119.376 32.7748C118.923 32.7748 118.546 32.7496 118.244 32.6993C117.967 32.649 117.665 32.5484 117.338 32.3975C117.037 32.2214 116.81 31.9447 116.659 31.5674C116.508 31.1901 116.433 30.7122 116.433 30.1337C116.433 29.6306 116.521 29.0269 116.697 28.3226C116.898 27.5932 116.999 27.1153 116.999 26.8889ZM129.677 32.9257V28.4735C129.049 28.4484 128.545 28.3478 128.168 28.1717C127.791 27.9705 127.514 27.7189 127.338 27.4171C127.187 27.1153 127.112 26.738 127.112 26.2852C127.112 24.8514 127.98 24.0717 129.715 23.9459V20.437C129.715 19.4812 130.407 18.6259 131.79 17.8713C133.174 17.0916 134.545 16.7017 135.903 16.7017C136.733 16.7017 137.274 16.9407 137.525 17.4186C137.777 17.8965 137.903 18.6134 137.903 19.5692L137.94 23.9082H138.959C140.342 23.9082 141.286 24.0968 141.789 24.4741C142.317 24.8263 142.581 25.4803 142.581 26.4361C142.581 26.8386 142.506 27.1781 142.355 27.4548C142.204 27.7315 141.952 27.9453 141.6 28.0962C141.273 28.2472 140.871 28.3604 140.393 28.4358C139.915 28.4861 139.324 28.5113 138.619 28.5113H137.94V32.6616C137.94 33.0641 137.953 33.4036 137.978 33.6803C138.028 33.9319 138.091 34.1331 138.167 34.284C138.242 34.4349 138.343 34.5355 138.469 34.5859C138.619 34.6362 138.796 34.6613 138.997 34.6613C139.299 34.6613 139.55 34.5607 139.751 34.3595C139.953 34.1331 140.104 33.8941 140.204 33.6426C140.33 33.3659 140.481 33.1269 140.657 32.9257C140.858 32.6993 141.084 32.5861 141.336 32.5861C141.915 32.5861 142.355 32.7245 142.657 33.0012C142.984 33.2779 143.147 33.6174 143.147 34.0199C143.147 34.699 143.009 35.4285 142.732 36.2083C142.481 36.988 142.103 37.7426 141.6 38.4721C141.097 39.2015 140.393 39.8052 139.487 40.2831C138.607 40.761 137.613 41 136.507 41C134.016 41 132.256 40.3712 131.224 39.1135C130.193 37.8558 129.677 35.7932 129.677 32.9257ZM154.805 36.9629C154.805 38.4721 154.49 39.5285 153.862 40.1322C153.233 40.7107 152.113 41 150.504 41C149.02 41 148.013 40.6604 147.485 39.9813C146.957 39.277 146.693 38.1325 146.693 36.5478V27.2662C146.693 26.411 146.844 25.6689 147.146 25.0401C147.447 24.3861 147.888 23.883 148.466 23.5309C149.045 23.1787 149.724 23.0027 150.504 23.0027C152.415 23.0027 153.673 23.556 154.277 24.6628C155.736 23.556 157.144 23.0027 158.502 23.0027C161.144 23.0027 162.464 24.2603 162.464 26.7757C162.464 27.7818 162.175 28.5993 161.596 29.2282C161.018 29.857 160.263 30.1714 159.332 30.1714C158.779 30.1714 158.326 30.0582 157.974 29.8318C157.647 29.6055 157.333 29.3791 157.031 29.1527C156.754 28.9263 156.427 28.8131 156.05 28.8131C155.497 28.8131 155.082 29.0018 154.805 29.3791V36.9629ZM175.939 32.0579C175.939 30.7499 175.776 29.6055 175.449 28.6245C175.122 27.6183 174.644 27.1153 174.015 27.1153C173.588 27.1153 173.21 27.3668 172.883 27.8699C172.556 28.3729 172.317 28.9892 172.166 29.7186C172.015 30.4481 171.94 31.2279 171.94 32.0579C171.94 33.3408 172.116 34.4727 172.468 35.4537C172.82 36.4095 173.323 36.8874 173.977 36.8874C174.631 36.8874 175.122 36.4095 175.449 35.4537C175.776 34.4978 175.939 33.3659 175.939 32.0579ZM173.977 41.2641C172.015 41.2641 170.242 40.912 168.657 40.2077C167.098 39.5034 165.84 38.4469 164.884 37.0383C163.954 35.6297 163.488 33.9822 163.488 32.0957C163.488 29.2282 164.469 26.9518 166.431 25.2665C168.393 23.5812 170.909 22.7385 173.977 22.7385C177.046 22.7385 179.549 23.5812 181.486 25.2665C183.423 26.9518 184.391 29.2282 184.391 32.0957C184.391 34.938 183.397 37.1767 181.41 38.8116C179.448 40.4466 176.971 41.2641 173.977 41.2641Z" fill="url(#paint0_linear_2516_443)"/>
<path d="M207.705 22.3048C206.624 22.3048 205.819 22.6192 205.291 23.2481C204.788 23.8769 204.536 24.9962 204.536 26.606V31.0582H210.799V26.5306C210.799 25.4741 210.673 24.6315 210.422 24.0027C210.17 23.3487 209.818 22.9085 209.365 22.6821C208.938 22.4306 208.384 22.3048 207.705 22.3048ZM210.799 36.265H204.536V38.2647C204.536 39.5475 204.196 40.4908 203.517 41.0945C202.838 41.6982 201.668 42 200.008 42C199.304 42 198.726 41.8994 198.273 41.6982C197.82 41.4969 197.418 41.1574 197.065 40.6794C196.738 40.2015 196.487 39.5098 196.311 38.6043C196.16 37.6736 196.034 36.5668 195.933 35.284C195.858 33.976 195.82 32.3285 195.82 30.3413C195.82 28.6058 195.996 27.0211 196.348 25.5873C196.726 24.1284 197.216 22.8959 197.82 21.8898C198.449 20.8836 199.153 20.0033 199.933 19.2486C200.713 18.4689 201.555 17.8652 202.461 17.4376C203.391 17.01 204.284 16.6956 205.14 16.4943C206.02 16.268 206.9 16.1548 207.781 16.1548C208.837 16.1548 209.881 16.3057 210.912 16.6075C211.944 16.8842 212.988 17.3747 214.044 18.079C215.1 18.7833 216.019 19.6637 216.798 20.7201C217.603 21.7514 218.257 23.0971 218.76 24.7573C219.263 26.4174 219.515 28.2788 219.515 30.3413C219.515 33.6616 219.389 36.1267 219.138 37.7365C218.911 39.3212 218.509 40.4279 217.93 41.0567C217.377 41.6856 216.509 42 215.327 42C213.667 42 212.497 41.6982 211.818 41.0945C211.139 40.4908 210.799 39.5475 210.799 38.2647V36.265ZM232.378 36.3405C232.378 38.3024 232.013 39.7362 231.283 40.6417C230.554 41.5472 229.447 42 227.963 42C226.504 42 225.423 41.6101 224.718 40.8304C224.039 40.0506 223.7 38.6546 223.7 36.6423V20.6824C223.7 17.664 225.121 16.1548 227.963 16.1548C229.422 16.1548 230.516 16.4315 231.246 16.9848C232 17.5382 232.378 18.6575 232.378 20.3428V36.3405Z" fill="url(#paint1_linear_2516_443)"/>
<rect x="24" y="11" width="32" height="32" rx="16" fill="url(#paint2_linear_2516_443)"/>
<path d="M42.2154 24.2277C42.2154 23.5796 42.1569 23.0715 42.0401 22.7036C41.9232 22.3182 41.7145 22.0292 41.414 21.8365C41.1302 21.6438 40.813 21.5212 40.4624 21.4686C40.1285 21.3985 39.6611 21.3635 39.0601 21.3635V27.1445C39.5275 27.1445 39.9366 27.1007 40.2871 27.0131C40.6544 26.9255 40.9883 26.7766 41.2888 26.5664C41.5893 26.3562 41.8147 26.0584 41.9649 25.673C42.1319 25.2701 42.2154 24.7883 42.2154 24.2277ZM39.0601 32.0584C39.0601 33.4774 38.8097 34.4934 38.3088 35.1066C37.808 35.7022 37.0401 36 36.005 36C34.9699 36 34.2104 35.7285 33.7262 35.1854C33.2421 34.6248 33 33.6438 33 32.2423V21.1533C33 20.0847 33.2755 19.2964 33.8264 18.7883C34.3773 18.2628 35.1035 18 36.005 18H40.4624C41.5476 18 42.5492 18.1577 43.4674 18.473C44.3856 18.7708 45.1786 19.2 45.8464 19.7606C46.5309 20.3037 47.0568 20.9956 47.424 21.8365C47.808 22.6599 48 23.5796 48 24.5956C48 25.8394 47.6578 26.9255 46.9733 27.854C46.2888 28.765 45.3873 29.4482 44.2688 29.9037C43.1503 30.3591 41.8898 30.5869 40.4875 30.5869H39.0601V32.0584Z" fill="white"/>
<defs>
<linearGradient id="paint0_linear_2516_443" x1="66" y1="27" x2="186" y2="27" gradientUnits="userSpaceOnUse">
<stop stop-color="#A20FC6"/>
<stop offset="1" stop-color="#2388E2"/>
</linearGradient>
<linearGradient id="paint1_linear_2516_443" x1="194" y1="28" x2="235" y2="28" gradientUnits="userSpaceOnUse">
<stop stop-color="#A20FC6"/>
<stop offset="1" stop-color="#2388E2"/>
</linearGradient>
<linearGradient id="paint2_linear_2516_443" x1="20.2454" y1="24.7517" x2="58.6427" y2="24.7517" gradientUnits="userSpaceOnUse">
<stop offset="0.16" stop-color="#CD00FF"/>
<stop offset="0.885" stop-color="#0087FF"/>
</linearGradient>
</defs>
</svg>
