<svg width="32" height="32" viewBox="0 0 32 32" fill="none" xmlns="http://www.w3.org/2000/svg">
<rect width="32" height="32" rx="16" fill="white"/>
<path d="M18.2154 13.2277C18.2154 12.5796 18.1569 12.0715 18.0401 11.7036C17.9232 11.3182 17.7145 11.0292 17.414 10.8365C17.1302 10.6438 16.813 10.5212 16.4624 10.4686C16.1285 10.3985 15.6611 10.3635 15.0601 10.3635V16.1445C15.5275 16.1445 15.9366 16.1007 16.2871 16.0131C16.6544 15.9255 16.9883 15.7766 17.2888 15.5664C17.5893 15.3562 17.8147 15.0584 17.9649 14.673C18.1319 14.2701 18.2154 13.7883 18.2154 13.2277ZM15.0601 21.0584C15.0601 22.4774 14.8097 23.4934 14.3088 24.1066C13.808 24.7022 13.0401 25 12.005 25C10.9699 25 10.2104 24.7285 9.72621 24.1854C9.24207 23.6248 9 22.6438 9 21.2423V10.1533C9 9.08467 9.27546 8.29635 9.82638 7.78832C10.3773 7.26277 11.1035 7 12.005 7H16.4624C17.5476 7 18.5492 7.15766 19.4674 7.47299C20.3856 7.7708 21.1786 8.2 21.8464 8.76058C22.5309 9.30365 23.0568 9.99562 23.424 10.8365C23.808 11.6599 24 12.5796 24 13.5956C24 14.8394 23.6578 15.9255 22.9733 16.854C22.2888 17.765 21.3873 18.4482 20.2688 18.9037C19.1503 19.3591 17.8898 19.5869 16.4875 19.5869H15.0601V21.0584Z" fill="url(#paint0_linear_2516_421)"/>
<defs>
<linearGradient id="paint0_linear_2516_421" x1="7.24002" y1="14.7353" x2="25.2388" y2="14.7353" gradientUnits="userSpaceOnUse">
<stop offset="0.16" stop-color="#CD00FF"/>
<stop offset="0.885" stop-color="#0087FF"/>
</linearGradient>
</defs>
</svg>
