<svg width="203" height="60" viewBox="0 0 203 60" fill="none" xmlns="http://www.w3.org/2000/svg">
<rect width="203" height="60" fill="white"/>
<path d="M66.9624 28.664C66.9624 27.8747 66.8877 27.256 66.7384 26.808C66.589 26.3387 66.3224 25.9867 65.9384 25.752C65.5757 25.5173 65.1704 25.368 64.7224 25.304C64.2957 25.2187 63.6984 25.176 62.9304 25.176V32.216C63.5277 32.216 64.0504 32.1627 64.4984 32.056C64.9677 31.9493 65.3944 31.768 65.7784 31.512C66.1624 31.256 66.4504 30.8933 66.6424 30.424C66.8557 29.9333 66.9624 29.3467 66.9624 28.664ZM62.9304 38.2C62.9304 39.928 62.6104 41.1653 61.9704 41.912C61.3304 42.6373 60.349 43 59.0264 43C57.7037 43 56.733 42.6693 56.1144 42.008C55.4957 41.3253 55.1864 40.1307 55.1864 38.424V24.92C55.1864 23.6187 55.5384 22.6587 56.2424 22.04C56.9464 21.4 57.8744 21.08 59.0264 21.08H64.7224C66.109 21.08 67.389 21.272 68.5624 21.656C69.7357 22.0187 70.749 22.5413 71.6024 23.224C72.477 23.8853 73.149 24.728 73.6184 25.752C74.109 26.7547 74.3544 27.8747 74.3544 29.112C74.3544 30.6267 73.917 31.9493 73.0424 33.08C72.1677 34.1893 71.0157 35.0213 69.5864 35.576C68.157 36.1307 66.5464 36.408 64.7544 36.408H62.9304V38.2ZM77.0166 23.288C77.0166 22.584 77.3153 22.008 77.9126 21.56C78.5313 21.0907 79.3953 20.856 80.5046 20.856C82.83 20.856 83.9926 21.6667 83.9926 23.288C83.9926 24.184 83.694 24.8133 83.0966 25.176C82.5206 25.5387 81.6566 25.72 80.5046 25.72C79.502 25.72 78.67 25.528 78.0086 25.144C77.3473 24.76 77.0166 24.1413 77.0166 23.288ZM83.9606 39.576C83.9606 40.856 83.694 41.752 83.1606 42.264C82.6273 42.7547 81.6886 43 80.3446 43C79.086 43 78.222 42.712 77.7526 42.136C77.3046 41.5387 77.0806 40.568 77.0806 39.224V31.352C77.0806 30.264 77.3686 29.3893 77.9446 28.728C78.542 28.0667 79.3313 27.736 80.3126 27.736C81.4646 27.736 82.3606 27.992 83.0006 28.504C83.6406 28.9947 83.9606 29.912 83.9606 31.256V39.576ZM96.3346 31.032C96.3346 30.5413 96.0573 30.296 95.5026 30.296C95.0973 30.296 94.7346 30.52 94.4146 30.968C94.0946 31.416 93.8493 31.9813 93.6786 32.664C93.508 33.3253 93.4226 34.0187 93.4226 34.744C93.4226 35.8107 93.7426 36.6747 94.3826 37.336C95.044 37.9973 95.9293 38.328 97.0386 38.328C98.1266 38.328 99.0653 38.2 99.8546 37.944C100.175 37.8587 100.559 37.6987 101.007 37.464C101.476 37.2293 101.807 37.112 101.999 37.112C102.297 37.112 102.543 37.1653 102.735 37.272C102.927 37.3787 103.055 37.5067 103.119 37.656C103.204 37.8053 103.247 37.9653 103.247 38.136C103.247 38.4347 103.14 38.7973 102.927 39.224C102.735 39.6507 102.425 40.0987 101.999 40.568C101.572 41.0373 101.071 41.4747 100.495 41.88C99.94 42.264 99.2466 42.584 98.4146 42.84C97.5826 43.096 96.708 43.224 95.7906 43.224C93.1453 43.224 90.9693 42.52 89.2626 41.112C87.556 39.6827 86.7026 37.7307 86.7026 35.256C86.7026 33.6773 87.0866 32.3013 87.8546 31.128C88.644 29.9333 89.7213 29.0373 91.0866 28.44C92.452 27.8213 94.02 27.512 95.7906 27.512C97.476 27.512 98.8626 27.7147 99.9506 28.12C101.06 28.504 101.849 29.0267 102.319 29.688C102.788 30.3493 103.023 31.1387 103.023 32.056C103.023 32.4613 102.937 32.8773 102.767 33.304C102.617 33.7307 102.372 34.1573 102.031 34.584C101.711 35.0107 101.231 35.3627 100.591 35.64C99.9506 35.896 99.204 36.024 98.3506 36.024C97.9666 36.024 97.6466 36.0027 97.3906 35.96C97.156 35.9173 96.9 35.832 96.6226 35.704C96.3666 35.5547 96.1746 35.32 96.0466 35C95.9186 34.68 95.8546 34.2747 95.8546 33.784C95.8546 33.3573 95.9293 32.8453 96.0786 32.248C96.2493 31.6293 96.3346 31.224 96.3346 31.032ZM107.088 36.152V32.376C106.554 32.3547 106.128 32.2693 105.808 32.12C105.488 31.9493 105.253 31.736 105.104 31.48C104.976 31.224 104.912 30.904 104.912 30.52C104.912 29.304 105.648 28.6427 107.12 28.536V25.56C107.12 24.7493 107.706 24.024 108.88 23.384C110.053 22.7227 111.216 22.392 112.368 22.392C113.072 22.392 113.53 22.5947 113.744 23C113.957 23.4053 114.064 24.0133 114.064 24.824L114.096 28.504H114.96C116.133 28.504 116.933 28.664 117.36 28.984C117.808 29.2827 118.032 29.8373 118.032 30.648C118.032 30.9893 117.968 31.2773 117.84 31.512C117.712 31.7467 117.498 31.928 117.2 32.056C116.922 32.184 116.581 32.28 116.176 32.344C115.77 32.3867 115.269 32.408 114.672 32.408H114.096V35.928C114.096 36.2693 114.106 36.5573 114.128 36.792C114.17 37.0053 114.224 37.176 114.288 37.304C114.352 37.432 114.437 37.5173 114.544 37.56C114.672 37.6027 114.821 37.624 114.992 37.624C115.248 37.624 115.461 37.5387 115.632 37.368C115.802 37.176 115.93 36.9733 116.016 36.76C116.122 36.5253 116.25 36.3227 116.4 36.152C116.57 35.96 116.762 35.864 116.976 35.864C117.466 35.864 117.84 35.9813 118.096 36.216C118.373 36.4507 118.512 36.7387 118.512 37.08C118.512 37.656 118.394 38.2747 118.16 38.936C117.946 39.5973 117.626 40.2373 117.2 40.856C116.773 41.4747 116.176 41.9867 115.408 42.392C114.661 42.7973 113.818 43 112.88 43C110.768 43 109.274 42.4667 108.4 41.4C107.525 40.3333 107.088 38.584 107.088 36.152ZM128.399 39.576C128.399 40.856 128.132 41.752 127.599 42.264C127.066 42.7547 126.116 43 124.751 43C123.492 43 122.639 42.712 122.191 42.136C121.743 41.5387 121.519 40.568 121.519 39.224V31.352C121.519 30.6267 121.647 29.9973 121.903 29.464C122.159 28.9093 122.532 28.4827 123.023 28.184C123.514 27.8853 124.09 27.736 124.751 27.736C126.372 27.736 127.439 28.2053 127.951 29.144C129.188 28.2053 130.383 27.736 131.535 27.736C133.775 27.736 134.895 28.8027 134.895 30.936C134.895 31.7893 134.65 32.4827 134.159 33.016C133.668 33.5493 133.028 33.816 132.239 33.816C131.77 33.816 131.386 33.72 131.087 33.528C130.81 33.336 130.543 33.144 130.287 32.952C130.052 32.76 129.775 32.664 129.455 32.664C128.986 32.664 128.634 32.824 128.399 33.144V39.576ZM146.324 35.416C146.324 34.3067 146.185 33.336 145.908 32.504C145.63 31.6507 145.225 31.224 144.692 31.224C144.329 31.224 144.009 31.4373 143.732 31.864C143.454 32.2907 143.252 32.8133 143.124 33.432C142.996 34.0507 142.932 34.712 142.932 35.416C142.932 36.504 143.081 37.464 143.38 38.296C143.678 39.1067 144.105 39.512 144.66 39.512C145.214 39.512 145.63 39.1067 145.908 38.296C146.185 37.4853 146.324 36.5253 146.324 35.416ZM144.66 43.224C142.996 43.224 141.492 42.9253 140.148 42.328C138.825 41.7307 137.758 40.8347 136.948 39.64C136.158 38.4453 135.764 37.048 135.764 35.448C135.764 33.016 136.596 31.0853 138.26 29.656C139.924 28.2267 142.057 27.512 144.66 27.512C147.262 27.512 149.385 28.2267 151.028 29.656C152.67 31.0853 153.492 33.016 153.492 35.448C153.492 37.8587 152.649 39.7573 150.964 41.144C149.3 42.5307 147.198 43.224 144.66 43.224ZM174.784 26.296C173.867 26.296 173.184 26.5627 172.736 27.096C172.309 27.6293 172.096 28.5787 172.096 29.944V33.72H177.408V29.88C177.408 28.984 177.301 28.2693 177.088 27.736C176.875 27.1813 176.576 26.808 176.192 26.616C175.829 26.4027 175.36 26.296 174.784 26.296ZM177.408 38.136H172.096V39.832C172.096 40.92 171.808 41.72 171.232 42.232C170.656 42.744 169.664 43 168.256 43C167.659 43 167.168 42.9147 166.784 42.744C166.4 42.5733 166.059 42.2853 165.76 41.88C165.483 41.4747 165.269 40.888 165.12 40.12C164.992 39.3307 164.885 38.392 164.8 37.304C164.736 36.1947 164.704 34.7973 164.704 33.112C164.704 31.64 164.853 30.296 165.152 29.08C165.472 27.8427 165.888 26.7973 166.4 25.944C166.933 25.0907 167.531 24.344 168.192 23.704C168.853 23.0427 169.568 22.5307 170.336 22.168C171.125 21.8053 171.883 21.5387 172.608 21.368C173.355 21.176 174.101 21.08 174.848 21.08C175.744 21.08 176.629 21.208 177.504 21.464C178.379 21.6987 179.264 22.1147 180.16 22.712C181.056 23.3093 181.835 24.056 182.496 24.952C183.179 25.8267 183.733 26.968 184.16 28.376C184.587 29.784 184.8 31.3627 184.8 33.112C184.8 35.928 184.693 38.0187 184.48 39.384C184.288 40.728 183.947 41.6667 183.456 42.2C182.987 42.7333 182.251 43 181.248 43C179.84 43 178.848 42.744 178.272 42.232C177.696 41.72 177.408 40.92 177.408 39.832V38.136ZM195.709 38.2C195.709 39.864 195.4 41.08 194.781 41.848C194.163 42.616 193.224 43 191.965 43C190.728 43 189.811 42.6693 189.213 42.008C188.637 41.3467 188.349 40.1627 188.349 38.456V24.92C188.349 22.36 189.555 21.08 191.965 21.08C193.203 21.08 194.131 21.3147 194.749 21.784C195.389 22.2533 195.709 23.2027 195.709 24.632V38.2Z" fill="url(#paint0_linear_2516_392)"/>
<rect x="7" y="15" width="32" height="32" rx="16" fill="url(#paint1_linear_2516_392)"/>
<path d="M25.2154 28.2277C25.2154 27.5796 25.1569 27.0715 25.0401 26.7036C24.9232 26.3182 24.7145 26.0292 24.414 25.8365C24.1302 25.6438 23.813 25.5212 23.4624 25.4686C23.1285 25.3985 22.6611 25.3635 22.0601 25.3635V31.1445C22.5275 31.1445 22.9366 31.1007 23.2871 31.0131C23.6544 30.9255 23.9883 30.7766 24.2888 30.5664C24.5893 30.3562 24.8147 30.0584 24.9649 29.673C25.1319 29.2701 25.2154 28.7883 25.2154 28.2277ZM22.0601 36.0584C22.0601 37.4774 21.8097 38.4934 21.3088 39.1066C20.808 39.7022 20.0401 40 19.005 40C17.9699 40 17.2104 39.7285 16.7262 39.1854C16.2421 38.6248 16 37.6438 16 36.2423V25.1533C16 24.0847 16.2755 23.2964 16.8264 22.7883C17.3773 22.2628 18.1035 22 19.005 22H23.4624C24.5476 22 25.5492 22.1577 26.4674 22.473C27.3856 22.7708 28.1786 23.2 28.8464 23.7606C29.5309 24.3037 30.0568 24.9956 30.424 25.8365C30.808 26.6599 31 27.5796 31 28.5956C31 29.8394 30.6578 30.9255 29.9733 31.854C29.2888 32.765 28.3873 33.4482 27.2688 33.9037C26.1503 34.3591 24.8898 34.5869 23.4875 34.5869H22.0601V36.0584Z" fill="white"/>
<defs>
<linearGradient id="paint0_linear_2516_392" x1="53" y1="30.5" x2="198" y2="30.5" gradientUnits="userSpaceOnUse">
<stop offset="0.16" stop-color="#CD00FF"/>
<stop offset="0.885" stop-color="#0087FF"/>
</linearGradient>
<linearGradient id="paint1_linear_2516_392" x1="3.24537" y1="28.7517" x2="41.6427" y2="28.7517" gradientUnits="userSpaceOnUse">
<stop offset="0.16" stop-color="#CD00FF"/>
<stop offset="0.885" stop-color="#0087FF"/>
</linearGradient>
</defs>
</svg>
