<svg width="174" height="57" viewBox="0 0 174 57" fill="none" xmlns="http://www.w3.org/2000/svg">
<rect width="174" height="57" fill="white"/>
<path d="M77.3125 32.9531C77.3125 32.599 77.276 32.2812 77.2031 32C77.1406 31.7083 77.0104 31.4375 76.8125 31.1875C76.625 30.9375 76.3385 30.6875 75.9531 30.4375C75.5677 30.1771 75.0521 29.9062 74.4062 29.625C73.5938 29.2917 72.7969 28.9167 72.0156 28.5C71.2344 28.0729 70.5312 27.5781 69.9062 27.0156C69.2917 26.4427 68.7969 25.776 68.4219 25.0156C68.0469 24.2448 67.8594 23.349 67.8594 22.3281C67.8594 21.349 68.0469 20.4688 68.4219 19.6875C68.8073 18.8958 69.3333 18.224 70 17.6719C70.6771 17.1094 71.474 16.6823 72.3906 16.3906C73.3073 16.0885 74.3073 15.9375 75.3906 15.9375C76.8281 15.9375 78.0938 16.2292 79.1875 16.8125C80.2917 17.3854 81.151 18.2031 81.7656 19.2656C82.3906 20.3177 82.7031 21.5625 82.7031 23H77.375C77.375 22.4271 77.3021 21.9219 77.1562 21.4844C77.0104 21.0469 76.7812 20.7031 76.4688 20.4531C76.1667 20.2031 75.7656 20.0781 75.2656 20.0781C74.8177 20.0781 74.4375 20.1823 74.125 20.3906C73.8229 20.599 73.5938 20.8802 73.4375 21.2344C73.2812 21.5781 73.2031 21.9583 73.2031 22.375C73.2031 22.7188 73.2812 23.0312 73.4375 23.3125C73.5938 23.5833 73.8073 23.8385 74.0781 24.0781C74.3594 24.3177 74.6823 24.5469 75.0469 24.7656C75.4219 24.9844 75.8229 25.1979 76.25 25.4062C77.2812 25.7917 78.1927 26.224 78.9844 26.7031C79.7865 27.1719 80.4583 27.7083 81 28.3125C81.5417 28.9062 81.9479 29.5833 82.2188 30.3438C82.5 31.1042 82.6406 31.9635 82.6406 32.9219C82.6406 33.9427 82.474 34.849 82.1406 35.6406C81.8177 36.4323 81.3438 37.1042 80.7188 37.6562C80.0938 38.1979 79.3385 38.6094 78.4531 38.8906C77.5781 39.1719 76.5885 39.3125 75.4844 39.3125C74.474 39.3125 73.4792 39.1667 72.5 38.875C71.5312 38.5729 70.651 38.1146 69.8594 37.5C69.0781 36.875 68.4531 36.0781 67.9844 35.1094C67.5156 34.1302 67.2812 32.9688 67.2812 31.625H72.6562C72.6562 32.2917 72.7083 32.8542 72.8125 33.3125C72.9167 33.7708 73.0781 34.1406 73.2969 34.4219C73.526 34.6927 73.8177 34.8906 74.1719 35.0156C74.526 35.1302 74.9635 35.1875 75.4844 35.1875C75.9635 35.1875 76.3333 35.0885 76.5938 34.8906C76.8646 34.6823 77.0521 34.4115 77.1562 34.0781C77.2604 33.7344 77.3125 33.3594 77.3125 32.9531ZM93.2031 22.0938V25.75H84.2656V22.0938H93.2031ZM85.8906 17.8906H91.0312V33.4844C91.0312 33.9323 91.0625 34.2812 91.125 34.5312C91.1979 34.7708 91.3281 34.9427 91.5156 35.0469C91.7135 35.1406 91.9896 35.1875 92.3438 35.1875C92.5938 35.1875 92.7969 35.1823 92.9531 35.1719C93.1198 35.151 93.2656 35.125 93.3906 35.0938L93.3594 38.8594C92.9531 39.0052 92.5312 39.1146 92.0938 39.1875C91.6667 39.2708 91.1979 39.3125 90.6875 39.3125C89.6771 39.3125 88.8125 39.1354 88.0938 38.7812C87.3854 38.4271 86.8385 37.8698 86.4531 37.1094C86.0781 36.349 85.8906 35.3594 85.8906 34.1406V17.8906ZM103.281 34.8906V22.0938H108.422V39H103.625L103.281 34.8906ZM103.75 31.4531L105.016 31.4219C105.016 32.5573 104.901 33.6094 104.672 34.5781C104.443 35.5365 104.109 36.3698 103.672 37.0781C103.234 37.7865 102.698 38.3385 102.062 38.7344C101.438 39.1198 100.714 39.3125 99.8906 39.3125C99.1823 39.3125 98.5365 39.1979 97.9531 38.9688C97.3802 38.7292 96.8802 38.3594 96.4531 37.8594C96.0365 37.349 95.7083 36.6979 95.4688 35.9062C95.2396 35.1042 95.125 34.1458 95.125 33.0312V22.0938H100.25V33.0625C100.25 33.4375 100.276 33.7604 100.328 34.0312C100.391 34.3021 100.474 34.5312 100.578 34.7188C100.693 34.8958 100.839 35.0312 101.016 35.125C101.193 35.2083 101.401 35.25 101.641 35.25C102.182 35.25 102.609 35.0833 102.922 34.75C103.234 34.4167 103.448 33.9635 103.562 33.3906C103.688 32.8177 103.75 32.1719 103.75 31.4531ZM119.031 35.125V15H124.172V39H119.562L119.031 35.125ZM110.578 31.375V29.7969C110.578 28.4115 110.693 27.2188 110.922 26.2188C111.161 25.2083 111.51 24.375 111.969 23.7188C112.438 23.0625 113.021 22.5781 113.719 22.2656C114.427 21.9427 115.234 21.7812 116.141 21.7812C116.911 21.7812 117.573 21.9948 118.125 22.4219C118.677 22.849 119.141 23.4427 119.516 24.2031C119.901 24.9635 120.214 25.8542 120.453 26.875C120.703 27.8958 120.891 28.9896 121.016 30.1562V31.2188C120.87 32.3125 120.677 33.349 120.438 34.3281C120.198 35.2969 119.885 36.1562 119.5 36.9062C119.125 37.6562 118.656 38.2448 118.094 38.6719C117.542 39.099 116.88 39.3125 116.109 39.3125C115.193 39.3125 114.391 39.151 113.703 38.8281C113.016 38.4948 112.438 38 111.969 37.3438C111.51 36.6771 111.161 35.849 110.922 34.8594C110.693 33.8698 110.578 32.7083 110.578 31.375ZM115.703 29.7969V31.375C115.703 32.1042 115.724 32.7188 115.766 33.2188C115.818 33.7083 115.906 34.1042 116.031 34.4062C116.167 34.7083 116.349 34.9271 116.578 35.0625C116.807 35.1875 117.099 35.25 117.453 35.25C117.943 35.25 118.344 35.1042 118.656 34.8125C118.969 34.5208 119.193 34.1042 119.328 33.5625C119.464 33.0104 119.5 32.3646 119.438 31.625V29.7188C119.479 29.0729 119.458 28.5104 119.375 28.0312C119.302 27.5417 119.177 27.1354 119 26.8125C118.833 26.4896 118.62 26.25 118.359 26.0938C118.109 25.9271 117.818 25.8438 117.484 25.8438C117.151 25.8438 116.865 25.9115 116.625 26.0469C116.396 26.1719 116.214 26.3854 116.078 26.6875C115.953 26.9896 115.859 27.3958 115.797 27.9062C115.734 28.4167 115.703 29.0469 115.703 29.7969ZM132.344 22.0938V39H127.219V22.0938H132.344ZM126.969 17.7344C126.969 16.9844 127.224 16.3698 127.734 15.8906C128.255 15.4115 128.927 15.1719 129.75 15.1719C130.583 15.1719 131.255 15.4115 131.766 15.8906C132.276 16.3698 132.531 16.9844 132.531 17.7344C132.531 18.4844 132.276 19.099 131.766 19.5781C131.255 20.0573 130.583 20.2969 129.75 20.2969C128.927 20.2969 128.255 20.0573 127.734 19.5781C127.224 19.099 126.969 18.4844 126.969 17.7344ZM134.859 31.3438V29.7656C134.859 28.4323 135.026 27.2708 135.359 26.2812C135.693 25.2812 136.167 24.4531 136.781 23.7969C137.396 23.1302 138.13 22.6302 138.984 22.2969C139.839 21.9531 140.792 21.7812 141.844 21.7812C142.917 21.7812 143.88 21.9531 144.734 22.2969C145.589 22.6302 146.323 23.1302 146.938 23.7969C147.552 24.4531 148.026 25.2812 148.359 26.2812C148.693 27.2708 148.859 28.4323 148.859 29.7656V31.3438C148.859 32.6667 148.693 33.8281 148.359 34.8281C148.026 35.8281 147.552 36.6615 146.938 37.3281C146.333 37.9948 145.599 38.4948 144.734 38.8281C143.88 39.151 142.927 39.3125 141.875 39.3125C140.823 39.3125 139.865 39.151 139 38.8281C138.135 38.4948 137.396 37.9948 136.781 37.3281C136.167 36.6615 135.693 35.8281 135.359 34.8281C135.026 33.8281 134.859 32.6667 134.859 31.3438ZM140 29.7656V31.3438C140 32.0625 140.042 32.6771 140.125 33.1875C140.208 33.6875 140.328 34.0938 140.484 34.4062C140.651 34.7083 140.849 34.9271 141.078 35.0625C141.307 35.1979 141.573 35.2656 141.875 35.2656C142.26 35.2656 142.573 35.1979 142.812 35.0625C143.062 34.9271 143.255 34.7083 143.391 34.4062C143.526 34.0938 143.615 33.6875 143.656 33.1875C143.708 32.6771 143.734 32.0625 143.734 31.3438V29.7656C143.734 29.0573 143.693 28.4583 143.609 27.9688C143.536 27.4688 143.417 27.0625 143.25 26.75C143.094 26.4271 142.896 26.1979 142.656 26.0625C142.417 25.9167 142.146 25.8438 141.844 25.8438C141.552 25.8438 141.292 25.9167 141.062 26.0625C140.833 26.1979 140.641 26.4271 140.484 26.75C140.328 27.0625 140.208 27.4688 140.125 27.9688C140.042 28.4583 140 29.0573 140 29.7656Z" fill="#9600FF"/>
<rect x="24" y="12" width="32" height="32" rx="16" fill="url(#paint0_linear_2516_437)"/>
<path d="M42.2154 25.2277C42.2154 24.5796 42.1569 24.0715 42.0401 23.7036C41.9232 23.3182 41.7145 23.0292 41.414 22.8365C41.1302 22.6438 40.813 22.5212 40.4624 22.4686C40.1285 22.3985 39.6611 22.3635 39.0601 22.3635V28.1445C39.5275 28.1445 39.9366 28.1007 40.2871 28.0131C40.6544 27.9255 40.9883 27.7766 41.2888 27.5664C41.5893 27.3562 41.8147 27.0584 41.9649 26.673C42.1319 26.2701 42.2154 25.7883 42.2154 25.2277ZM39.0601 33.0584C39.0601 34.4774 38.8097 35.4934 38.3088 36.1066C37.808 36.7022 37.0401 37 36.005 37C34.9699 37 34.2104 36.7285 33.7262 36.1854C33.2421 35.6248 33 34.6438 33 33.2423V22.1533C33 21.0847 33.2755 20.2964 33.8264 19.7883C34.3773 19.2628 35.1035 19 36.005 19H40.4624C41.5476 19 42.5492 19.1577 43.4674 19.473C44.3856 19.7708 45.1786 20.2 45.8464 20.7606C46.5309 21.3037 47.0568 21.9956 47.424 22.8365C47.808 23.6599 48 24.5796 48 25.5956C48 26.8394 47.6578 27.9255 46.9733 28.854C46.2888 29.765 45.3873 30.4482 44.2688 30.9037C43.1503 31.3591 41.8898 31.5869 40.4875 31.5869H39.0601V33.0584Z" fill="white"/>
<defs>
<linearGradient id="paint0_linear_2516_437" x1="20.2454" y1="25.7517" x2="58.6427" y2="25.7517" gradientUnits="userSpaceOnUse">
<stop offset="0.16" stop-color="#CD00FF"/>
<stop offset="0.885" stop-color="#0087FF"/>
</linearGradient>
</defs>
</svg>
