<svg width="203" height="60" viewBox="0 0 203 60" fill="none" xmlns="http://www.w3.org/2000/svg">
<rect width="203" height="60" fill="#121317"/>
<path d="M61.9624 27.664C61.9624 26.8747 61.8877 26.256 61.7384 25.808C61.589 25.3387 61.3224 24.9867 60.9384 24.752C60.5757 24.5173 60.1704 24.368 59.7224 24.304C59.2957 24.2187 58.6984 24.176 57.9304 24.176V31.216C58.5277 31.216 59.0504 31.1627 59.4984 31.056C59.9677 30.9493 60.3944 30.768 60.7784 30.512C61.1624 30.256 61.4504 29.8933 61.6424 29.424C61.8557 28.9333 61.9624 28.3467 61.9624 27.664ZM57.9304 37.2C57.9304 38.928 57.6104 40.1653 56.9704 40.912C56.3304 41.6373 55.349 42 54.0264 42C52.7037 42 51.733 41.6693 51.1144 41.008C50.4957 40.3253 50.1864 39.1307 50.1864 37.424V23.92C50.1864 22.6187 50.5384 21.6587 51.2424 21.04C51.9464 20.4 52.8744 20.08 54.0264 20.08H59.7224C61.109 20.08 62.389 20.272 63.5624 20.656C64.7357 21.0187 65.749 21.5413 66.6024 22.224C67.477 22.8853 68.149 23.728 68.6184 24.752C69.109 25.7547 69.3544 26.8747 69.3544 28.112C69.3544 29.6267 68.917 30.9493 68.0424 32.08C67.1677 33.1893 66.0157 34.0213 64.5864 34.576C63.157 35.1307 61.5464 35.408 59.7544 35.408H57.9304V37.2ZM72.0166 22.288C72.0166 21.584 72.3153 21.008 72.9126 20.56C73.5313 20.0907 74.3953 19.856 75.5046 19.856C77.83 19.856 78.9926 20.6667 78.9926 22.288C78.9926 23.184 78.694 23.8133 78.0966 24.176C77.5206 24.5387 76.6566 24.72 75.5046 24.72C74.502 24.72 73.67 24.528 73.0086 24.144C72.3473 23.76 72.0166 23.1413 72.0166 22.288ZM78.9606 38.576C78.9606 39.856 78.694 40.752 78.1606 41.264C77.6273 41.7547 76.6886 42 75.3446 42C74.086 42 73.222 41.712 72.7526 41.136C72.3046 40.5387 72.0806 39.568 72.0806 38.224V30.352C72.0806 29.264 72.3686 28.3893 72.9446 27.728C73.542 27.0667 74.3313 26.736 75.3126 26.736C76.4646 26.736 77.3606 26.992 78.0006 27.504C78.6406 27.9947 78.9606 28.912 78.9606 30.256V38.576ZM91.3346 30.032C91.3346 29.5413 91.0573 29.296 90.5026 29.296C90.0973 29.296 89.7346 29.52 89.4146 29.968C89.0946 30.416 88.8493 30.9813 88.6786 31.664C88.508 32.3253 88.4226 33.0187 88.4226 33.744C88.4226 34.8107 88.7426 35.6747 89.3826 36.336C90.044 36.9973 90.9293 37.328 92.0386 37.328C93.1266 37.328 94.0653 37.2 94.8546 36.944C95.1746 36.8587 95.5586 36.6987 96.0066 36.464C96.476 36.2293 96.8066 36.112 96.9986 36.112C97.2973 36.112 97.5426 36.1653 97.7346 36.272C97.9266 36.3787 98.0546 36.5067 98.1186 36.656C98.204 36.8053 98.2466 36.9653 98.2466 37.136C98.2466 37.4347 98.14 37.7973 97.9266 38.224C97.7346 38.6507 97.4253 39.0987 96.9986 39.568C96.572 40.0373 96.0706 40.4747 95.4946 40.88C94.94 41.264 94.2466 41.584 93.4146 41.84C92.5826 42.096 91.708 42.224 90.7906 42.224C88.1453 42.224 85.9693 41.52 84.2626 40.112C82.556 38.6827 81.7026 36.7307 81.7026 34.256C81.7026 32.6773 82.0866 31.3013 82.8546 30.128C83.644 28.9333 84.7213 28.0373 86.0866 27.44C87.452 26.8213 89.02 26.512 90.7906 26.512C92.476 26.512 93.8626 26.7147 94.9506 27.12C96.06 27.504 96.8493 28.0267 97.3186 28.688C97.788 29.3493 98.0226 30.1387 98.0226 31.056C98.0226 31.4613 97.9373 31.8773 97.7666 32.304C97.6173 32.7307 97.372 33.1573 97.0306 33.584C96.7106 34.0107 96.2306 34.3627 95.5906 34.64C94.9506 34.896 94.204 35.024 93.3506 35.024C92.9666 35.024 92.6466 35.0027 92.3906 34.96C92.156 34.9173 91.9 34.832 91.6226 34.704C91.3666 34.5547 91.1746 34.32 91.0466 34C90.9186 33.68 90.8546 33.2747 90.8546 32.784C90.8546 32.3573 90.9293 31.8453 91.0786 31.248C91.2493 30.6293 91.3346 30.224 91.3346 30.032ZM102.088 35.152V31.376C101.554 31.3547 101.128 31.2693 100.808 31.12C100.488 30.9493 100.253 30.736 100.104 30.48C99.9756 30.224 99.9116 29.904 99.9116 29.52C99.9116 28.304 100.648 27.6427 102.12 27.536V24.56C102.12 23.7493 102.706 23.024 103.88 22.384C105.053 21.7227 106.216 21.392 107.368 21.392C108.072 21.392 108.53 21.5947 108.744 22C108.957 22.4053 109.064 23.0133 109.064 23.824L109.096 27.504H109.96C111.133 27.504 111.933 27.664 112.36 27.984C112.808 28.2827 113.032 28.8373 113.032 29.648C113.032 29.9893 112.968 30.2773 112.84 30.512C112.712 30.7467 112.498 30.928 112.2 31.056C111.922 31.184 111.581 31.28 111.176 31.344C110.77 31.3867 110.269 31.408 109.672 31.408H109.096V34.928C109.096 35.2693 109.106 35.5573 109.128 35.792C109.17 36.0053 109.224 36.176 109.288 36.304C109.352 36.432 109.437 36.5173 109.544 36.56C109.672 36.6027 109.821 36.624 109.992 36.624C110.248 36.624 110.461 36.5387 110.632 36.368C110.802 36.176 110.93 35.9733 111.016 35.76C111.122 35.5253 111.25 35.3227 111.4 35.152C111.57 34.96 111.762 34.864 111.976 34.864C112.466 34.864 112.84 34.9813 113.096 35.216C113.373 35.4507 113.512 35.7387 113.512 36.08C113.512 36.656 113.394 37.2747 113.16 37.936C112.946 38.5973 112.626 39.2373 112.2 39.856C111.773 40.4747 111.176 40.9867 110.408 41.392C109.661 41.7973 108.818 42 107.88 42C105.768 42 104.274 41.4667 103.4 40.4C102.525 39.3333 102.088 37.584 102.088 35.152ZM123.399 38.576C123.399 39.856 123.132 40.752 122.599 41.264C122.066 41.7547 121.116 42 119.751 42C118.492 42 117.639 41.712 117.191 41.136C116.743 40.5387 116.519 39.568 116.519 38.224V30.352C116.519 29.6267 116.647 28.9973 116.903 28.464C117.159 27.9093 117.532 27.4827 118.023 27.184C118.514 26.8853 119.09 26.736 119.751 26.736C121.372 26.736 122.439 27.2053 122.951 28.144C124.188 27.2053 125.383 26.736 126.535 26.736C128.775 26.736 129.895 27.8027 129.895 29.936C129.895 30.7893 129.65 31.4827 129.159 32.016C128.668 32.5493 128.028 32.816 127.239 32.816C126.77 32.816 126.386 32.72 126.087 32.528C125.81 32.336 125.543 32.144 125.287 31.952C125.052 31.76 124.775 31.664 124.455 31.664C123.986 31.664 123.634 31.824 123.399 32.144V38.576ZM141.324 34.416C141.324 33.3067 141.185 32.336 140.908 31.504C140.63 30.6507 140.225 30.224 139.692 30.224C139.329 30.224 139.009 30.4373 138.732 30.864C138.454 31.2907 138.252 31.8133 138.124 32.432C137.996 33.0507 137.932 33.712 137.932 34.416C137.932 35.504 138.081 36.464 138.38 37.296C138.678 38.1067 139.105 38.512 139.66 38.512C140.214 38.512 140.63 38.1067 140.908 37.296C141.185 36.4853 141.324 35.5253 141.324 34.416ZM139.66 42.224C137.996 42.224 136.492 41.9253 135.148 41.328C133.825 40.7307 132.758 39.8347 131.948 38.64C131.158 37.4453 130.764 36.048 130.764 34.448C130.764 32.016 131.596 30.0853 133.26 28.656C134.924 27.2267 137.057 26.512 139.66 26.512C142.262 26.512 144.385 27.2267 146.028 28.656C147.67 30.0853 148.492 32.016 148.492 34.448C148.492 36.8587 147.649 38.7573 145.964 40.144C144.3 41.5307 142.198 42.224 139.66 42.224ZM169.784 25.296C168.867 25.296 168.184 25.5627 167.736 26.096C167.309 26.6293 167.096 27.5787 167.096 28.944V32.72H172.408V28.88C172.408 27.984 172.301 27.2693 172.088 26.736C171.875 26.1813 171.576 25.808 171.192 25.616C170.829 25.4027 170.36 25.296 169.784 25.296ZM172.408 37.136H167.096V38.832C167.096 39.92 166.808 40.72 166.232 41.232C165.656 41.744 164.664 42 163.256 42C162.659 42 162.168 41.9147 161.784 41.744C161.4 41.5733 161.059 41.2853 160.76 40.88C160.483 40.4747 160.269 39.888 160.12 39.12C159.992 38.3307 159.885 37.392 159.8 36.304C159.736 35.1947 159.704 33.7973 159.704 32.112C159.704 30.64 159.853 29.296 160.152 28.08C160.472 26.8427 160.888 25.7973 161.4 24.944C161.933 24.0907 162.531 23.344 163.192 22.704C163.853 22.0427 164.568 21.5307 165.336 21.168C166.125 20.8053 166.883 20.5387 167.608 20.368C168.355 20.176 169.101 20.08 169.848 20.08C170.744 20.08 171.629 20.208 172.504 20.464C173.379 20.6987 174.264 21.1147 175.16 21.712C176.056 22.3093 176.835 23.056 177.496 23.952C178.179 24.8267 178.733 25.968 179.16 27.376C179.587 28.784 179.8 30.3627 179.8 32.112C179.8 34.928 179.693 37.0187 179.48 38.384C179.288 39.728 178.947 40.6667 178.456 41.2C177.987 41.7333 177.251 42 176.248 42C174.84 42 173.848 41.744 173.272 41.232C172.696 40.72 172.408 39.92 172.408 38.832V37.136ZM190.709 37.2C190.709 38.864 190.4 40.08 189.781 40.848C189.163 41.616 188.224 42 186.965 42C185.728 42 184.811 41.6693 184.213 41.008C183.637 40.3467 183.349 39.1627 183.349 37.456V23.92C183.349 21.36 184.555 20.08 186.965 20.08C188.203 20.08 189.131 20.3147 189.749 20.784C190.389 21.2533 190.709 22.2027 190.709 23.632V37.2Z" fill="url(#paint0_linear_2516_419)"/>
<rect x="7" y="15" width="32" height="32" rx="16" fill="url(#paint1_linear_2516_419)"/>
<path d="M25.2154 28.2277C25.2154 27.5796 25.1569 27.0715 25.0401 26.7036C24.9232 26.3182 24.7145 26.0292 24.414 25.8365C24.1302 25.6438 23.813 25.5212 23.4624 25.4686C23.1285 25.3985 22.6611 25.3635 22.0601 25.3635V31.1445C22.5275 31.1445 22.9366 31.1007 23.2871 31.0131C23.6544 30.9255 23.9883 30.7766 24.2888 30.5664C24.5893 30.3562 24.8147 30.0584 24.9649 29.673C25.1319 29.2701 25.2154 28.7883 25.2154 28.2277ZM22.0601 36.0584C22.0601 37.4774 21.8097 38.4934 21.3088 39.1066C20.808 39.7022 20.0401 40 19.005 40C17.9699 40 17.2104 39.7285 16.7262 39.1854C16.2421 38.6248 16 37.6438 16 36.2423V25.1533C16 24.0847 16.2755 23.2964 16.8264 22.7883C17.3773 22.2628 18.1035 22 19.005 22H23.4624C24.5476 22 25.5492 22.1577 26.4674 22.473C27.3856 22.7708 28.1786 23.2 28.8464 23.7606C29.5309 24.3037 30.0568 24.9956 30.424 25.8365C30.808 26.6599 31 27.5796 31 28.5956C31 29.8394 30.6578 30.9255 29.9733 31.854C29.2888 32.765 28.3873 33.4482 27.2688 33.9037C26.1503 34.3591 24.8898 34.5869 23.4875 34.5869H22.0601V36.0584Z" fill="white"/>
<defs>
<linearGradient id="paint0_linear_2516_419" x1="48" y1="29.5" x2="193" y2="29.5" gradientUnits="userSpaceOnUse">
<stop offset="0.16" stop-color="#CD00FF"/>
<stop offset="0.885" stop-color="#0087FF"/>
</linearGradient>
<linearGradient id="paint1_linear_2516_419" x1="3.24537" y1="28.7517" x2="41.6427" y2="28.7517" gradientUnits="userSpaceOnUse">
<stop offset="0.16" stop-color="#CD00FF"/>
<stop offset="0.885" stop-color="#0087FF"/>
</linearGradient>
</defs>
</svg>
