<svg width="203" height="60" viewBox="0 0 203 60" fill="none" xmlns="http://www.w3.org/2000/svg">
<rect width="203" height="60" fill="white"/>
<path d="M42.9624 27.664C42.9624 26.8747 42.8877 26.256 42.7384 25.808C42.589 25.3387 42.3224 24.9867 41.9384 24.752C41.5757 24.5173 41.1704 24.368 40.7224 24.304C40.2957 24.2187 39.6984 24.176 38.9304 24.176V31.216C39.5277 31.216 40.0504 31.1627 40.4984 31.056C40.9677 30.9493 41.3944 30.768 41.7784 30.512C42.1624 30.256 42.4504 29.8933 42.6424 29.424C42.8557 28.9333 42.9624 28.3467 42.9624 27.664ZM38.9304 37.2C38.9304 38.928 38.6104 40.1653 37.9704 40.912C37.3304 41.6373 36.349 42 35.0264 42C33.7037 42 32.733 41.6693 32.1144 41.008C31.4957 40.3253 31.1864 39.1307 31.1864 37.424V23.92C31.1864 22.6187 31.5384 21.6587 32.2424 21.04C32.9464 20.4 33.8744 20.08 35.0264 20.08H40.7224C42.109 20.08 43.389 20.272 44.5624 20.656C45.7357 21.0187 46.749 21.5413 47.6024 22.224C48.477 22.8853 49.149 23.728 49.6184 24.752C50.109 25.7547 50.3544 26.8747 50.3544 28.112C50.3544 29.6267 49.917 30.9493 49.0424 32.08C48.1677 33.1893 47.0157 34.0213 45.5864 34.576C44.157 35.1307 42.5464 35.408 40.7544 35.408H38.9304V37.2ZM53.0166 22.288C53.0166 21.584 53.3153 21.008 53.9126 20.56C54.5313 20.0907 55.3953 19.856 56.5046 19.856C58.83 19.856 59.9926 20.6667 59.9926 22.288C59.9926 23.184 59.694 23.8133 59.0966 24.176C58.5206 24.5387 57.6566 24.72 56.5046 24.72C55.502 24.72 54.67 24.528 54.0086 24.144C53.3473 23.76 53.0166 23.1413 53.0166 22.288ZM59.9606 38.576C59.9606 39.856 59.694 40.752 59.1606 41.264C58.6273 41.7547 57.6886 42 56.3446 42C55.086 42 54.222 41.712 53.7526 41.136C53.3046 40.5387 53.0806 39.568 53.0806 38.224V30.352C53.0806 29.264 53.3686 28.3893 53.9446 27.728C54.542 27.0667 55.3313 26.736 56.3126 26.736C57.4646 26.736 58.3606 26.992 59.0006 27.504C59.6406 27.9947 59.9606 28.912 59.9606 30.256V38.576ZM72.3346 30.032C72.3346 29.5413 72.0573 29.296 71.5026 29.296C71.0973 29.296 70.7346 29.52 70.4146 29.968C70.0946 30.416 69.8493 30.9813 69.6786 31.664C69.508 32.3253 69.4226 33.0187 69.4226 33.744C69.4226 34.8107 69.7426 35.6747 70.3826 36.336C71.044 36.9973 71.9293 37.328 73.0386 37.328C74.1266 37.328 75.0653 37.2 75.8546 36.944C76.1746 36.8587 76.5586 36.6987 77.0066 36.464C77.476 36.2293 77.8066 36.112 77.9986 36.112C78.2973 36.112 78.5426 36.1653 78.7346 36.272C78.9266 36.3787 79.0546 36.5067 79.1186 36.656C79.204 36.8053 79.2466 36.9653 79.2466 37.136C79.2466 37.4347 79.14 37.7973 78.9266 38.224C78.7346 38.6507 78.4253 39.0987 77.9986 39.568C77.572 40.0373 77.0706 40.4747 76.4946 40.88C75.94 41.264 75.2466 41.584 74.4146 41.84C73.5826 42.096 72.708 42.224 71.7906 42.224C69.1453 42.224 66.9693 41.52 65.2626 40.112C63.556 38.6827 62.7026 36.7307 62.7026 34.256C62.7026 32.6773 63.0866 31.3013 63.8546 30.128C64.644 28.9333 65.7213 28.0373 67.0866 27.44C68.452 26.8213 70.02 26.512 71.7906 26.512C73.476 26.512 74.8626 26.7147 75.9506 27.12C77.06 27.504 77.8493 28.0267 78.3186 28.688C78.788 29.3493 79.0226 30.1387 79.0226 31.056C79.0226 31.4613 78.9373 31.8773 78.7666 32.304C78.6173 32.7307 78.372 33.1573 78.0306 33.584C77.7106 34.0107 77.2306 34.3627 76.5906 34.64C75.9506 34.896 75.204 35.024 74.3506 35.024C73.9666 35.024 73.6466 35.0027 73.3906 34.96C73.156 34.9173 72.9 34.832 72.6226 34.704C72.3666 34.5547 72.1746 34.32 72.0466 34C71.9186 33.68 71.8546 33.2747 71.8546 32.784C71.8546 32.3573 71.9293 31.8453 72.0786 31.248C72.2493 30.6293 72.3346 30.224 72.3346 30.032ZM83.0876 35.152V31.376C82.5543 31.3547 82.1276 31.2693 81.8076 31.12C81.4876 30.9493 81.253 30.736 81.1036 30.48C80.9756 30.224 80.9116 29.904 80.9116 29.52C80.9116 28.304 81.6476 27.6427 83.1196 27.536V24.56C83.1196 23.7493 83.7063 23.024 84.8796 22.384C86.053 21.7227 87.2156 21.392 88.3676 21.392C89.0716 21.392 89.5303 21.5947 89.7436 22C89.957 22.4053 90.0636 23.0133 90.0636 23.824L90.0956 27.504H90.9596C92.133 27.504 92.933 27.664 93.3596 27.984C93.8076 28.2827 94.0316 28.8373 94.0316 29.648C94.0316 29.9893 93.9676 30.2773 93.8396 30.512C93.7116 30.7467 93.4983 30.928 93.1996 31.056C92.9223 31.184 92.581 31.28 92.1756 31.344C91.7703 31.3867 91.269 31.408 90.6716 31.408H90.0956V34.928C90.0956 35.2693 90.1063 35.5573 90.1276 35.792C90.1703 36.0053 90.2236 36.176 90.2876 36.304C90.3516 36.432 90.437 36.5173 90.5436 36.56C90.6716 36.6027 90.821 36.624 90.9916 36.624C91.2476 36.624 91.461 36.5387 91.6316 36.368C91.8023 36.176 91.9303 35.9733 92.0156 35.76C92.1223 35.5253 92.2503 35.3227 92.3996 35.152C92.5703 34.96 92.7623 34.864 92.9756 34.864C93.4663 34.864 93.8396 34.9813 94.0956 35.216C94.373 35.4507 94.5116 35.7387 94.5116 36.08C94.5116 36.656 94.3943 37.2747 94.1596 37.936C93.9463 38.5973 93.6263 39.2373 93.1996 39.856C92.773 40.4747 92.1756 40.9867 91.4076 41.392C90.661 41.7973 89.8183 42 88.8796 42C86.7676 42 85.2743 41.4667 84.3996 40.4C83.525 39.3333 83.0876 37.584 83.0876 35.152ZM104.399 38.576C104.399 39.856 104.132 40.752 103.599 41.264C103.066 41.7547 102.116 42 100.751 42C99.4922 42 98.6389 41.712 98.1909 41.136C97.7429 40.5387 97.5189 39.568 97.5189 38.224V30.352C97.5189 29.6267 97.6469 28.9973 97.9029 28.464C98.1589 27.9093 98.5322 27.4827 99.0229 27.184C99.5135 26.8853 100.09 26.736 100.751 26.736C102.372 26.736 103.439 27.2053 103.951 28.144C105.188 27.2053 106.383 26.736 107.535 26.736C109.775 26.736 110.895 27.8027 110.895 29.936C110.895 30.7893 110.65 31.4827 110.159 32.016C109.668 32.5493 109.028 32.816 108.239 32.816C107.77 32.816 107.386 32.72 107.087 32.528C106.81 32.336 106.543 32.144 106.287 31.952C106.052 31.76 105.775 31.664 105.455 31.664C104.986 31.664 104.634 31.824 104.399 32.144V38.576ZM122.324 34.416C122.324 33.3067 122.185 32.336 121.908 31.504C121.63 30.6507 121.225 30.224 120.692 30.224C120.329 30.224 120.009 30.4373 119.732 30.864C119.454 31.2907 119.252 31.8133 119.124 32.432C118.996 33.0507 118.932 33.712 118.932 34.416C118.932 35.504 119.081 36.464 119.38 37.296C119.678 38.1067 120.105 38.512 120.66 38.512C121.214 38.512 121.63 38.1067 121.908 37.296C122.185 36.4853 122.324 35.5253 122.324 34.416ZM120.66 42.224C118.996 42.224 117.492 41.9253 116.148 41.328C114.825 40.7307 113.758 39.8347 112.948 38.64C112.158 37.4453 111.764 36.048 111.764 34.448C111.764 32.016 112.596 30.0853 114.26 28.656C115.924 27.2267 118.057 26.512 120.66 26.512C123.262 26.512 125.385 27.2267 127.028 28.656C128.67 30.0853 129.492 32.016 129.492 34.448C129.492 36.8587 128.649 38.7573 126.964 40.144C125.3 41.5307 123.198 42.224 120.66 42.224ZM150.784 25.296C149.867 25.296 149.184 25.5627 148.736 26.096C148.309 26.6293 148.096 27.5787 148.096 28.944V32.72H153.408V28.88C153.408 27.984 153.301 27.2693 153.088 26.736C152.875 26.1813 152.576 25.808 152.192 25.616C151.829 25.4027 151.36 25.296 150.784 25.296ZM153.408 37.136H148.096V38.832C148.096 39.92 147.808 40.72 147.232 41.232C146.656 41.744 145.664 42 144.256 42C143.659 42 143.168 41.9147 142.784 41.744C142.4 41.5733 142.059 41.2853 141.76 40.88C141.483 40.4747 141.269 39.888 141.12 39.12C140.992 38.3307 140.885 37.392 140.8 36.304C140.736 35.1947 140.704 33.7973 140.704 32.112C140.704 30.64 140.853 29.296 141.152 28.08C141.472 26.8427 141.888 25.7973 142.4 24.944C142.933 24.0907 143.531 23.344 144.192 22.704C144.853 22.0427 145.568 21.5307 146.336 21.168C147.125 20.8053 147.883 20.5387 148.608 20.368C149.355 20.176 150.101 20.08 150.848 20.08C151.744 20.08 152.629 20.208 153.504 20.464C154.379 20.6987 155.264 21.1147 156.16 21.712C157.056 22.3093 157.835 23.056 158.496 23.952C159.179 24.8267 159.733 25.968 160.16 27.376C160.587 28.784 160.8 30.3627 160.8 32.112C160.8 34.928 160.693 37.0187 160.48 38.384C160.288 39.728 159.947 40.6667 159.456 41.2C158.987 41.7333 158.251 42 157.248 42C155.84 42 154.848 41.744 154.272 41.232C153.696 40.72 153.408 39.92 153.408 38.832V37.136ZM171.709 37.2C171.709 38.864 171.4 40.08 170.781 40.848C170.163 41.616 169.224 42 167.965 42C166.728 42 165.811 41.6693 165.213 41.008C164.637 40.3467 164.349 39.1627 164.349 37.456V23.92C164.349 21.36 165.555 20.08 167.965 20.08C169.203 20.08 170.131 20.3147 170.749 20.784C171.389 21.2533 171.709 22.2027 171.709 23.632V37.2Z" fill="url(#paint0_linear_2516_389)"/>
<defs>
<linearGradient id="paint0_linear_2516_389" x1="29" y1="29.5" x2="174" y2="29.5" gradientUnits="userSpaceOnUse">
<stop offset="0.16" stop-color="#CD00FF"/>
<stop offset="0.885" stop-color="#0087FF"/>
</linearGradient>
</defs>
</svg>
