<svg width="365" height="57" viewBox="0 0 365 57" fill="none" xmlns="http://www.w3.org/2000/svg">
<rect width="365" height="57" fill="#121317"/>
<path d="M236.317 34.8703C236.317 34.4527 236.274 34.0781 236.188 33.7465C236.115 33.4026 235.961 33.0833 235.728 32.7885C235.507 32.4937 235.169 32.199 234.714 31.9042C234.26 31.5972 233.652 31.2778 232.891 30.9462C231.933 30.5532 230.993 30.111 230.072 29.6198C229.151 29.1162 228.322 28.5328 227.585 27.8696C226.86 27.1941 226.277 26.408 225.835 25.5114C225.392 24.6026 225.171 23.5463 225.171 22.3427C225.171 21.1882 225.392 20.1503 225.835 19.2292C226.289 18.2958 226.909 17.5036 227.695 16.8526C228.494 16.1894 229.433 15.6858 230.514 15.3419C231.595 14.9858 232.774 14.8077 234.051 14.8077C235.746 14.8077 237.238 15.1516 238.528 15.8394C239.83 16.5149 240.843 17.479 241.568 18.7318C242.305 19.9723 242.673 21.44 242.673 23.1349H236.391C236.391 22.4594 236.305 21.8637 236.133 21.3478C235.961 20.832 235.691 20.4267 235.322 20.1319C234.966 19.8372 234.493 19.6898 233.904 19.6898C233.376 19.6898 232.927 19.8126 232.559 20.0582C232.203 20.3039 231.933 20.6355 231.748 21.0531C231.564 21.4584 231.472 21.9067 231.472 22.3979C231.472 22.8033 231.564 23.1717 231.748 23.5033C231.933 23.8227 232.184 24.1236 232.504 24.4061C232.835 24.6885 233.216 24.9587 233.646 25.2167C234.088 25.4746 234.561 25.7264 235.064 25.972C236.28 26.4264 237.355 26.9361 238.289 27.5011C239.234 28.0538 240.026 28.6863 240.665 29.3987C241.304 30.0988 241.783 30.8971 242.102 31.7937C242.434 32.6903 242.599 33.7035 242.599 34.8335C242.599 36.0371 242.403 37.1056 242.01 38.0391C241.629 38.9725 241.07 39.7647 240.333 40.4156C239.597 41.0543 238.706 41.5394 237.662 41.871C236.63 42.2027 235.464 42.3685 234.162 42.3685C232.97 42.3685 231.797 42.1965 230.643 41.8526C229.501 41.4964 228.463 40.956 227.529 40.2314C226.608 39.4945 225.871 38.5549 225.319 37.4127C224.766 36.2582 224.49 34.8887 224.49 33.3044H230.827C230.827 34.0904 230.889 34.7536 231.011 35.294C231.134 35.8344 231.325 36.2705 231.583 36.6021C231.853 36.9214 232.197 37.1548 232.614 37.3021C233.032 37.4372 233.548 37.5048 234.162 37.5048C234.727 37.5048 235.163 37.3881 235.47 37.1548C235.789 36.9091 236.01 36.5898 236.133 36.1968C236.256 35.7915 236.317 35.3493 236.317 34.8703ZM255.053 22.0663V26.3773H244.515V22.0663H255.053ZM246.431 17.1105H252.493V35.4967C252.493 36.0248 252.529 36.4363 252.603 36.731C252.689 37.0135 252.843 37.2162 253.064 37.339C253.297 37.4495 253.623 37.5048 254.04 37.5048C254.335 37.5048 254.574 37.4987 254.759 37.4864C254.955 37.4618 255.127 37.4311 255.275 37.3943L255.238 41.8342C254.759 42.0061 254.261 42.1351 253.745 42.2211C253.242 42.3193 252.689 42.3685 252.087 42.3685C250.896 42.3685 249.877 42.1597 249.029 41.7421C248.194 41.3245 247.549 40.6674 247.095 39.7708C246.653 38.8742 246.431 37.7074 246.431 36.2705V17.1105ZM266.936 37.1548V22.0663H272.997V42H267.342L266.936 37.1548ZM267.489 33.1017L268.981 33.0649C268.981 34.4036 268.846 35.6441 268.576 36.7863C268.306 37.9162 267.913 38.8988 267.397 39.734C266.881 40.5691 266.248 41.2201 265.499 41.6868C264.762 42.1412 263.909 42.3685 262.938 42.3685C262.103 42.3685 261.342 42.2334 260.654 41.9632C259.979 41.6807 259.389 41.2447 258.885 40.6551C258.394 40.0533 258.007 39.2857 257.725 38.3522C257.455 37.4065 257.319 36.2766 257.319 34.9624V22.0663H263.362V34.9993C263.362 35.4414 263.393 35.8222 263.454 36.1415C263.528 36.4608 263.626 36.731 263.749 36.9521C263.884 37.1609 264.056 37.3206 264.265 37.4311C264.474 37.5294 264.719 37.5785 265.002 37.5785C265.641 37.5785 266.144 37.382 266.513 36.9889C266.881 36.5959 267.133 36.0617 267.268 35.3861C267.415 34.7106 267.489 33.9492 267.489 33.1017ZM285.507 37.4311V13.7023H291.568V42H286.133L285.507 37.4311ZM275.54 33.0096V31.1489C275.54 29.5154 275.675 28.1091 275.945 26.93C276.228 25.7386 276.639 24.7561 277.179 23.9823C277.732 23.2086 278.42 22.6374 279.243 22.269C280.078 21.8882 281.03 21.6979 282.098 21.6979C283.007 21.6979 283.787 21.9497 284.438 22.4532C285.089 22.9568 285.636 23.6568 286.078 24.5534C286.532 25.45 286.901 26.5001 287.183 27.7038C287.478 28.9074 287.699 30.197 287.846 31.5726V32.8254C287.674 34.115 287.447 35.337 287.165 36.4915C286.882 37.6338 286.514 38.647 286.059 39.5313C285.617 40.4156 285.064 41.1096 284.401 41.6131C283.75 42.1167 282.97 42.3685 282.062 42.3685C280.981 42.3685 280.035 42.1781 279.224 41.7973C278.414 41.4043 277.732 40.8209 277.179 40.0472C276.639 39.2611 276.228 38.2847 275.945 37.1179C275.675 35.9511 275.54 34.5817 275.54 33.0096ZM281.583 31.1489V33.0096C281.583 33.8693 281.607 34.594 281.656 35.1835C281.718 35.7607 281.822 36.2275 281.969 36.5836C282.129 36.9398 282.344 37.1977 282.614 37.3574C282.884 37.5048 283.228 37.5785 283.646 37.5785C284.223 37.5785 284.696 37.4065 285.064 37.0626C285.433 36.7187 285.697 36.2275 285.857 35.5888C286.016 34.9379 286.059 34.1764 285.986 33.3044V31.0567C286.035 30.2953 286.01 29.632 285.912 29.0671C285.826 28.4898 285.679 28.0108 285.47 27.6301C285.273 27.2493 285.021 26.9668 284.714 26.7826C284.42 26.5861 284.076 26.4878 283.683 26.4878C283.29 26.4878 282.952 26.5677 282.669 26.7273C282.399 26.8747 282.184 27.1265 282.025 27.4827C281.877 27.8389 281.767 28.3179 281.693 28.9197C281.619 29.5215 281.583 30.2646 281.583 31.1489ZM301.203 22.0663V42H295.16V22.0663H301.203ZM294.866 16.9263C294.866 16.042 295.166 15.3174 295.768 14.7524C296.382 14.1874 297.175 13.905 298.145 13.905C299.127 13.905 299.92 14.1874 300.521 14.7524C301.123 15.3174 301.424 16.042 301.424 16.9263C301.424 17.8106 301.123 18.5353 300.521 19.1002C299.92 19.6652 299.127 19.9477 298.145 19.9477C297.175 19.9477 296.382 19.6652 295.768 19.1002C295.166 18.5353 294.866 17.8106 294.866 16.9263ZM304.169 32.9727V31.112C304.169 29.5399 304.366 28.1705 304.759 27.0037C305.152 25.8246 305.711 24.8482 306.435 24.0744C307.16 23.2884 308.026 22.6989 309.033 22.3058C310.04 21.9005 311.164 21.6979 312.404 21.6979C313.669 21.6979 314.805 21.9005 315.812 22.3058C316.82 22.6989 317.685 23.2884 318.41 24.0744C319.135 24.8482 319.694 25.8246 320.087 27.0037C320.48 28.1705 320.676 29.5399 320.676 31.112V32.9727C320.676 34.5326 320.48 35.902 320.087 37.0811C319.694 38.2601 319.135 39.2427 318.41 40.0287C317.698 40.8148 316.832 41.4043 315.812 41.7973C314.805 42.1781 313.682 42.3685 312.441 42.3685C311.201 42.3685 310.071 42.1781 309.051 41.7973C308.032 41.4043 307.16 40.8148 306.435 40.0287C305.711 39.2427 305.152 38.2601 304.759 37.0811C304.366 35.902 304.169 34.5326 304.169 32.9727ZM310.23 31.112V32.9727C310.23 33.8202 310.279 34.5448 310.378 35.1467C310.476 35.7362 310.617 36.2152 310.801 36.5836C310.998 36.9398 311.231 37.1977 311.501 37.3574C311.772 37.5171 312.085 37.5969 312.441 37.5969C312.895 37.5969 313.264 37.5171 313.546 37.3574C313.841 37.1977 314.068 36.9398 314.228 36.5836C314.388 36.2152 314.492 35.7362 314.541 35.1467C314.603 34.5448 314.633 33.8202 314.633 32.9727V31.112C314.633 30.2768 314.584 29.5706 314.486 28.9934C314.4 28.4038 314.259 27.9248 314.062 27.5564C313.878 27.1756 313.645 26.9054 313.362 26.7458C313.08 26.5738 312.76 26.4878 312.404 26.4878C312.06 26.4878 311.753 26.5738 311.483 26.7458C311.213 26.9054 310.986 27.1756 310.801 27.5564C310.617 27.9248 310.476 28.4038 310.378 28.9934C310.279 29.5706 310.23 30.2768 310.23 31.112Z" fill="#9600FF"/>
<path d="M60.48 25.0968C60.48 24.1662 60.392 23.4367 60.2159 22.9085C60.0398 22.3551 59.7254 21.9401 59.2726 21.6634C58.845 21.3867 58.3671 21.2106 57.8389 21.1352C57.3358 21.0345 56.6315 20.9842 55.726 20.9842V29.2849C56.4303 29.2849 57.0465 29.222 57.5748 29.0962C58.1281 28.9705 58.6312 28.7567 59.084 28.4548C59.5367 28.153 59.8763 27.7254 60.1027 27.172C60.3542 26.5935 60.48 25.9018 60.48 25.0968ZM55.726 36.3405C55.726 38.3779 55.3487 39.8368 54.5941 40.7172C53.8395 41.5724 52.6824 42 51.1229 42C49.5634 42 48.4189 41.6101 47.6894 40.8304C46.96 40.0254 46.5952 38.6169 46.5952 36.6046V20.6824C46.5952 19.148 47.0103 18.0161 47.8403 17.2867C48.6704 16.5321 49.7646 16.1548 51.1229 16.1548H57.8389C59.4738 16.1548 60.9831 16.3811 62.3665 16.8339C63.7499 17.2615 64.9447 17.8778 65.9509 18.6827C66.9822 19.4625 67.7745 20.456 68.3279 21.6634C68.9064 22.8456 69.1957 24.1662 69.1957 25.6251C69.1957 27.411 68.68 28.9705 67.6487 30.3036C66.6174 31.6116 65.2592 32.5926 63.5739 33.2466C61.8886 33.9006 59.9895 34.2276 57.8766 34.2276H55.726V36.3405ZM72.3347 18.7582C72.3347 17.9281 72.6868 17.2489 73.3911 16.7207C74.1206 16.1673 75.1393 15.8907 76.4473 15.8907C79.189 15.8907 80.5599 16.8465 80.5599 18.7582C80.5599 19.8146 80.2077 20.5566 79.5034 20.9842C78.8243 21.4118 77.8056 21.6257 76.4473 21.6257C75.265 21.6257 74.2841 21.3993 73.5043 20.9465C72.7245 20.4937 72.3347 19.7643 72.3347 18.7582ZM80.5221 37.9629C80.5221 39.4721 80.2077 40.5285 79.5789 41.1322C78.95 41.7107 77.8433 42 76.2586 42C74.7746 42 73.7558 41.6604 73.2025 40.9813C72.6742 40.277 72.4101 39.1325 72.4101 37.5478V28.2662C72.4101 26.9834 72.7497 25.9521 73.4288 25.1723C74.1331 24.3925 75.0638 24.0027 76.2209 24.0027C77.5792 24.0027 78.6356 24.3045 79.3902 24.9082C80.1448 25.4867 80.5221 26.5683 80.5221 28.153V37.9629ZM95.112 27.8889C95.112 27.3103 94.785 27.0211 94.131 27.0211C93.6531 27.0211 93.2254 27.2852 92.8481 27.8134C92.4708 28.3416 92.1816 29.0082 91.9803 29.8131C91.7791 30.5929 91.6785 31.4104 91.6785 32.2656C91.6785 33.5233 92.0558 34.542 92.8104 35.3217C93.5902 36.1015 94.634 36.4914 95.942 36.4914C97.2249 36.4914 98.3316 36.3405 99.2623 36.0386C99.6396 35.938 100.092 35.7494 100.621 35.4727C101.174 35.196 101.564 35.0576 101.79 35.0576C102.142 35.0576 102.432 35.1205 102.658 35.2463C102.884 35.372 103.035 35.523 103.111 35.699C103.211 35.8751 103.262 36.0638 103.262 36.265C103.262 36.6171 103.136 37.0448 102.884 37.5478C102.658 38.0509 102.293 38.5791 101.79 39.1325C101.287 39.6859 100.696 40.2015 100.017 40.6794C99.3629 41.1322 98.5454 41.5095 97.5644 41.8113C96.5834 42.1132 95.5521 42.2641 94.4705 42.2641C91.3515 42.2641 88.7858 41.434 86.7736 39.7739C84.7613 38.0886 83.7551 35.7871 83.7551 32.8693C83.7551 31.0079 84.2079 29.3855 85.1134 28.0021C86.0441 26.5935 87.3144 25.537 88.9242 24.8327C90.534 24.1033 92.3828 23.7385 94.4705 23.7385C96.4577 23.7385 98.0926 23.9775 99.3755 24.4554C100.683 24.9082 101.614 25.5244 102.168 26.3042C102.721 27.084 102.998 28.0146 102.998 29.0962C102.998 29.5742 102.897 30.0647 102.696 30.5677C102.52 31.0708 102.23 31.5739 101.828 32.0769C101.451 32.58 100.885 32.995 100.13 33.322C99.3755 33.6239 98.4951 33.7748 97.489 33.7748C97.0362 33.7748 96.6589 33.7496 96.3571 33.6993C96.0804 33.649 95.7785 33.5484 95.4515 33.3975C95.1497 33.2214 94.9233 32.9447 94.7724 32.5674C94.6215 32.1901 94.546 31.7122 94.546 31.1337C94.546 30.6306 94.634 30.0269 94.8101 29.3226C95.0113 28.5932 95.112 28.1153 95.112 27.8889ZM107.791 33.9257V29.4735C107.162 29.4484 106.659 29.3478 106.281 29.1717C105.904 28.9705 105.627 28.7189 105.451 28.4171C105.3 28.1153 105.225 27.738 105.225 27.2852C105.225 25.8514 106.093 25.0717 107.828 24.9459V21.437C107.828 20.4812 108.52 19.6259 109.903 18.8713C111.287 18.0916 112.658 17.7017 114.016 17.7017C114.846 17.7017 115.387 17.9407 115.638 18.4186C115.89 18.8965 116.016 19.6134 116.016 20.5692L116.053 24.9082H117.072C118.456 24.9082 119.399 25.0968 119.902 25.4741C120.43 25.8263 120.694 26.4803 120.694 27.4361C120.694 27.8386 120.619 28.1781 120.468 28.4548C120.317 28.7315 120.065 28.9453 119.713 29.0962C119.386 29.2472 118.984 29.3604 118.506 29.4358C118.028 29.4861 117.437 29.5113 116.733 29.5113H116.053V33.6616C116.053 34.0641 116.066 34.4036 116.091 34.6803C116.141 34.9319 116.204 35.1331 116.28 35.284C116.355 35.4349 116.456 35.5355 116.582 35.5859C116.733 35.6362 116.909 35.6613 117.11 35.6613C117.412 35.6613 117.663 35.5607 117.864 35.3595C118.066 35.1331 118.217 34.8941 118.317 34.6426C118.443 34.3659 118.594 34.1269 118.77 33.9257C118.971 33.6993 119.198 33.5861 119.449 33.5861C120.028 33.5861 120.468 33.7245 120.77 34.0012C121.097 34.2779 121.26 34.6174 121.26 35.0199C121.26 35.699 121.122 36.4285 120.845 37.2083C120.594 37.988 120.216 38.7426 119.713 39.4721C119.21 40.2015 118.506 40.8052 117.6 41.2831C116.72 41.761 115.726 42 114.62 42C112.129 42 110.369 41.3712 109.337 40.1135C108.306 38.8558 107.791 36.7932 107.791 33.9257ZM132.918 37.9629C132.918 39.4721 132.604 40.5285 131.975 41.1322C131.346 41.7107 130.227 42 128.617 42C127.133 42 126.127 41.6604 125.598 40.9813C125.07 40.277 124.806 39.1325 124.806 37.5478V28.2662C124.806 27.411 124.957 26.6689 125.259 26.0401C125.561 25.3861 126.001 24.883 126.579 24.5309C127.158 24.1787 127.837 24.0027 128.617 24.0027C130.528 24.0027 131.786 24.556 132.39 25.6628C133.849 24.556 135.257 24.0027 136.616 24.0027C139.257 24.0027 140.577 25.2603 140.577 27.7757C140.577 28.7818 140.288 29.5993 139.709 30.2282C139.131 30.857 138.376 31.1714 137.446 31.1714C136.892 31.1714 136.439 31.0582 136.087 30.8318C135.76 30.6055 135.446 30.3791 135.144 30.1527C134.867 29.9263 134.54 29.8131 134.163 29.8131C133.61 29.8131 133.195 30.0018 132.918 30.3791V37.9629ZM154.053 33.0579C154.053 31.7499 153.889 30.6055 153.562 29.6245C153.235 28.6183 152.757 28.1153 152.128 28.1153C151.701 28.1153 151.323 28.3668 150.996 28.8699C150.669 29.3729 150.43 29.9892 150.28 30.7186C150.129 31.4481 150.053 32.2279 150.053 33.0579C150.053 34.3408 150.229 35.4727 150.581 36.4537C150.933 37.4095 151.437 37.8874 152.091 37.8874C152.745 37.8874 153.235 37.4095 153.562 36.4537C153.889 35.4978 154.053 34.3659 154.053 33.0579ZM152.091 42.2641C150.129 42.2641 148.355 41.912 146.771 41.2077C145.211 40.5034 143.953 39.4469 142.998 38.0383C142.067 36.6297 141.602 34.9822 141.602 33.0957C141.602 30.2282 142.583 27.9518 144.545 26.2665C146.506 24.5812 149.022 23.7385 152.091 23.7385C155.159 23.7385 157.662 24.5812 159.599 26.2665C161.536 27.9518 162.504 30.2282 162.504 33.0957C162.504 35.938 161.511 38.1767 159.523 39.8116C157.561 41.4466 155.084 42.2641 152.091 42.2641ZM187.609 22.3048C186.528 22.3048 185.723 22.6192 185.195 23.2481C184.692 23.8769 184.44 24.9962 184.44 26.606V31.0582H190.703V26.5306C190.703 25.4741 190.578 24.6315 190.326 24.0027C190.075 23.3487 189.722 22.9085 189.27 22.6821C188.842 22.4306 188.289 22.3048 187.609 22.3048ZM190.703 36.265H184.44V38.2647C184.44 39.5475 184.101 40.4908 183.421 41.0945C182.742 41.6982 181.573 42 179.912 42C179.208 42 178.63 41.8994 178.177 41.6982C177.724 41.4969 177.322 41.1574 176.97 40.6794C176.643 40.2015 176.391 39.5098 176.215 38.6043C176.064 37.6736 175.938 36.5668 175.838 35.284C175.762 33.976 175.724 32.3285 175.724 30.3413C175.724 28.6058 175.901 27.0211 176.253 25.5873C176.63 24.1284 177.12 22.8959 177.724 21.8898C178.353 20.8836 179.057 20.0033 179.837 19.2486C180.617 18.4689 181.459 17.8652 182.365 17.4376C183.296 17.01 184.189 16.6956 185.044 16.4943C185.924 16.268 186.805 16.1548 187.685 16.1548C188.741 16.1548 189.785 16.3057 190.817 16.6075C191.848 16.8842 192.892 17.3747 193.948 18.079C195.005 18.7833 195.923 19.6637 196.702 20.7201C197.507 21.7514 198.161 23.0971 198.664 24.7573C199.168 26.4174 199.419 28.2788 199.419 30.3413C199.419 33.6616 199.293 36.1267 199.042 37.7365C198.815 39.3212 198.413 40.4279 197.834 41.0567C197.281 41.6856 196.413 42 195.231 42C193.571 42 192.401 41.6982 191.722 41.0945C191.043 40.4908 190.703 39.5475 190.703 38.2647V36.265ZM212.282 36.3405C212.282 38.3024 211.917 39.7362 211.188 40.6417C210.458 41.5472 209.351 42 207.867 42C206.408 42 205.327 41.6101 204.623 40.8304C203.943 40.0506 203.604 38.6546 203.604 36.6423V20.6824C203.604 17.664 205.025 16.1548 207.867 16.1548C209.326 16.1548 210.42 16.4315 211.15 16.9848C211.905 17.5382 212.282 18.6575 212.282 20.3428V36.3405Z" fill="url(#paint0_linear_2516_463)"/>
<defs>
<linearGradient id="paint0_linear_2516_463" x1="44" y1="28" x2="215" y2="28" gradientUnits="userSpaceOnUse">
<stop stop-color="#A20FC6"/>
<stop offset="1" stop-color="#2388E2"/>
</linearGradient>
</defs>
</svg>
