<svg width="167" height="28" viewBox="0 0 167 28" fill="none" xmlns="http://www.w3.org/2000/svg">
<path d="M14.48 10.0968C14.48 9.16616 14.392 8.43671 14.2159 7.90848C14.0398 7.35511 13.7254 6.94007 13.2726 6.66338C12.845 6.38669 12.3671 6.21062 11.8389 6.13516C11.3358 6.03454 10.6315 5.98424 9.72597 5.98424V14.2849C10.4303 14.2849 11.0465 14.222 11.5748 14.0962C12.1281 13.9705 12.6312 13.7567 13.084 13.4548C13.5367 13.153 13.8763 12.7254 14.1027 12.172C14.3542 11.5935 14.48 10.9018 14.48 10.0968ZM9.72597 21.3405C9.72597 23.3779 9.34867 24.8368 8.59407 25.7172C7.83946 26.5724 6.6824 27 5.12288 27C3.56336 27 2.41888 26.6101 1.68943 25.8304C0.959974 25.0254 0.595248 23.6169 0.595248 21.6046V5.6824C0.595248 4.14803 1.01028 3.01612 1.84035 2.28667C2.67041 1.53207 3.76459 1.15476 5.12288 1.15476H11.8389C13.4738 1.15476 14.9831 1.38114 16.3665 1.83391C17.7499 2.26152 18.9447 2.87778 19.9509 3.68269C20.9822 4.46245 21.7745 5.45601 22.3279 6.66338C22.9064 7.8456 23.1957 9.16616 23.1957 10.6251C23.1957 12.411 22.68 13.9705 21.6487 15.3036C20.6174 16.6116 19.2592 17.5926 17.5739 18.2466C15.8886 18.9006 13.9895 19.2276 11.8766 19.2276H9.72597V21.3405ZM26.3347 3.75815C26.3347 2.92809 26.6868 2.24894 27.3911 1.72072C28.1206 1.16734 29.1393 0.890652 30.4473 0.890652C33.189 0.890652 34.5599 1.84648 34.5599 3.75815C34.5599 4.8146 34.2077 5.55663 33.5034 5.98424C32.8243 6.41185 31.8056 6.62565 30.4473 6.62565C29.265 6.62565 28.2841 6.39927 27.5043 5.94651C26.7245 5.49374 26.3347 4.76429 26.3347 3.75815ZM34.5221 22.9629C34.5221 24.4721 34.2077 25.5285 33.5789 26.1322C32.95 26.7107 31.8433 27 30.2586 27C28.7746 27 27.7558 26.6604 27.2025 25.9813C26.6742 25.277 26.4101 24.1325 26.4101 22.5478V13.2662C26.4101 11.9834 26.7497 10.9521 27.4288 10.1723C28.1331 9.39254 29.0638 9.00266 30.2209 9.00266C31.5792 9.00266 32.6356 9.3045 33.3902 9.90819C34.1448 10.4867 34.5221 11.5683 34.5221 13.153V22.9629ZM49.112 12.8889C49.112 12.3103 48.785 12.0211 48.131 12.0211C47.6531 12.0211 47.2254 12.2852 46.8481 12.8134C46.4708 13.3416 46.1816 14.0082 45.9803 14.8131C45.7791 15.5929 45.6785 16.4104 45.6785 17.2656C45.6785 18.5233 46.0558 19.542 46.8104 20.3217C47.5902 21.1015 48.634 21.4914 49.942 21.4914C51.2249 21.4914 52.3316 21.3405 53.2623 21.0386C53.6396 20.938 54.0924 20.7494 54.6206 20.4727C55.174 20.196 55.5638 20.0576 55.7902 20.0576C56.1424 20.0576 56.4316 20.1205 56.658 20.2463C56.8844 20.372 57.0353 20.523 57.1108 20.699C57.2114 20.8751 57.2617 21.0638 57.2617 21.265C57.2617 21.6171 57.1359 22.0448 56.8844 22.5478C56.658 23.0509 56.2933 23.5791 55.7902 24.1325C55.2871 24.6859 54.696 25.2015 54.0169 25.6794C53.3629 26.1322 52.5454 26.5095 51.5644 26.8113C50.5834 27.1132 49.5521 27.2641 48.4705 27.2641C45.3515 27.2641 42.7858 26.434 40.7736 24.7739C38.7613 23.0886 37.7551 20.7871 37.7551 17.8693C37.7551 16.0079 38.2079 14.3855 39.1134 13.0021C40.0441 11.5935 41.3144 10.537 42.9242 9.83273C44.534 9.10327 46.3828 8.73855 48.4705 8.73855C50.4577 8.73855 52.0926 8.97751 53.3755 9.45542C54.6835 9.90819 55.6141 10.5244 56.1675 11.3042C56.7209 12.084 56.9976 13.0146 56.9976 14.0962C56.9976 14.5742 56.897 15.0647 56.6957 15.5677C56.5197 16.0708 56.2304 16.5739 55.8279 17.0769C55.4506 17.58 54.8847 17.995 54.1301 18.322C53.3755 18.6239 52.4951 18.7748 51.489 18.7748C51.0362 18.7748 50.6589 18.7496 50.3571 18.6993C50.0804 18.649 49.7785 18.5484 49.4515 18.3975C49.1497 18.2214 48.9233 17.9447 48.7724 17.5674C48.6215 17.1901 48.546 16.7122 48.546 16.1337C48.546 15.6306 48.634 15.0269 48.8101 14.3226C49.0113 13.5932 49.112 13.1153 49.112 12.8889ZM61.7905 18.9257V14.4735C61.1617 14.4484 60.6586 14.3478 60.2813 14.1717C59.904 13.9705 59.6273 13.7189 59.4512 13.4171C59.3003 13.1153 59.2248 12.738 59.2248 12.2852C59.2248 10.8514 60.0926 10.0717 61.8282 9.94592V6.437C61.8282 5.48117 62.52 4.62595 63.9034 3.87134C65.2868 3.09158 66.6577 2.7017 68.016 2.7017C68.8461 2.7017 69.3869 2.94066 69.6384 3.41858C69.8899 3.8965 70.0157 4.61337 70.0157 5.56921L70.0534 9.90819H71.0721C72.4556 9.90819 73.3988 10.0968 73.9019 10.4741C74.4301 10.8263 74.6943 11.4803 74.6943 12.4361C74.6943 12.8386 74.6188 13.1781 74.4679 13.4548C74.317 13.7315 74.0654 13.9453 73.7133 14.0962C73.3863 14.2472 72.9838 14.3604 72.5059 14.4358C72.028 14.4861 71.4369 14.5113 70.7326 14.5113H70.0534V18.6616C70.0534 19.0641 70.066 19.4036 70.0912 19.6803C70.1415 19.9319 70.2044 20.1331 70.2798 20.284C70.3553 20.4349 70.4559 20.5355 70.5817 20.5859C70.7326 20.6362 70.9087 20.6613 71.1099 20.6613C71.4117 20.6613 71.6633 20.5607 71.8645 20.3595C72.0657 20.1331 72.2166 19.8941 72.3172 19.6426C72.443 19.3659 72.5939 19.1269 72.77 18.9257C72.9712 18.6993 73.1976 18.5861 73.4492 18.5861C74.0277 18.5861 74.4679 18.7245 74.7697 19.0012C75.0967 19.2779 75.2602 19.6174 75.2602 20.0199C75.2602 20.699 75.1219 21.4285 74.8452 22.2083C74.5936 22.988 74.2163 23.7426 73.7133 24.4721C73.2102 25.2015 72.5059 25.8052 71.6004 26.2831C70.72 26.761 69.7264 27 68.6197 27C66.1295 27 64.3687 26.3712 63.3374 25.1135C62.3061 23.8558 61.7905 21.7932 61.7905 18.9257ZM86.918 22.9629C86.918 24.4721 86.6036 25.5285 85.9747 26.1322C85.3459 26.7107 84.2266 27 82.6167 27C81.1327 27 80.1265 26.6604 79.5983 25.9813C79.0701 25.277 78.806 24.1325 78.806 22.5478V13.2662C78.806 12.411 78.9569 11.6689 79.2587 11.0401C79.5606 10.3861 80.0008 9.88303 80.5793 9.53088C81.1578 9.17873 81.837 9.00266 82.6167 9.00266C84.5284 9.00266 85.7861 9.55604 86.3898 10.6628C87.8487 9.55604 89.2573 9.00266 90.6155 9.00266C93.2567 9.00266 94.5772 10.2603 94.5772 12.7757C94.5772 13.7818 94.288 14.5993 93.7094 15.2282C93.1309 15.857 92.3763 16.1714 91.4456 16.1714C90.8922 16.1714 90.4395 16.0582 90.0873 15.8318C89.7603 15.6055 89.4459 15.3791 89.1441 15.1527C88.8674 14.9263 88.5404 14.8131 88.1631 14.8131C87.6097 14.8131 87.1947 15.0018 86.918 15.3791V22.9629ZM108.053 18.0579C108.053 16.7499 107.889 15.6055 107.562 14.6245C107.235 13.6183 106.757 13.1153 106.128 13.1153C105.701 13.1153 105.323 13.3668 104.996 13.8699C104.669 14.3729 104.43 14.9892 104.28 15.7186C104.129 16.4481 104.053 17.2279 104.053 18.0579C104.053 19.3408 104.229 20.4727 104.581 21.4537C104.933 22.4095 105.437 22.8874 106.091 22.8874C106.745 22.8874 107.235 22.4095 107.562 21.4537C107.889 20.4978 108.053 19.3659 108.053 18.0579ZM106.091 27.2641C104.129 27.2641 102.355 26.912 100.771 26.2077C99.2111 25.5034 97.9534 24.4469 96.9976 23.0383C96.0669 21.6297 95.6015 19.9822 95.6015 18.0957C95.6015 15.2282 96.5825 12.9518 98.5445 11.2665C100.506 9.58119 103.022 8.73855 106.091 8.73855C109.159 8.73855 111.662 9.58119 113.599 11.2665C115.536 12.9518 116.504 15.2282 116.504 18.0957C116.504 20.938 115.511 23.1767 113.523 24.8116C111.561 26.4466 109.084 27.2641 106.091 27.2641ZM141.609 7.3048C140.528 7.3048 139.723 7.61922 139.195 8.24806C138.692 8.87689 138.44 9.99622 138.44 11.606V16.0582H144.703V11.5306C144.703 10.4741 144.578 9.6315 144.326 9.00266C144.075 8.34867 143.722 7.90848 143.27 7.6821C142.842 7.43057 142.289 7.3048 141.609 7.3048ZM144.703 21.265H138.44V23.2647C138.44 24.5475 138.101 25.4908 137.421 26.0945C136.742 26.6982 135.573 27 133.912 27C133.208 27 132.63 26.8994 132.177 26.6982C131.724 26.4969 131.322 26.1574 130.97 25.6794C130.643 25.2015 130.391 24.5098 130.215 23.6043C130.064 22.6736 129.938 21.5668 129.838 20.284C129.762 18.976 129.724 17.3285 129.724 15.3413C129.724 13.6058 129.901 12.0211 130.253 10.5873C130.63 9.12843 131.12 7.89591 131.724 6.88976C132.353 5.88362 133.057 5.00325 133.837 4.24865C134.617 3.46889 135.459 2.8652 136.365 2.43759C137.296 2.00998 138.189 1.69556 139.044 1.49434C139.924 1.26795 140.805 1.15476 141.685 1.15476C142.741 1.15476 143.785 1.30568 144.817 1.60753C145.848 1.88421 146.892 2.37471 147.948 3.07901C149.005 3.78331 149.923 4.66368 150.702 5.72013C151.507 6.75142 152.161 8.09713 152.664 9.75727C153.168 11.4174 153.419 13.2788 153.419 15.3413C153.419 18.6616 153.293 21.1267 153.042 22.7365C152.815 24.3212 152.413 25.4279 151.834 26.0567C151.281 26.6856 150.413 27 149.231 27C147.571 27 146.401 26.6982 145.722 26.0945C145.043 25.4908 144.703 24.5475 144.703 23.2647V21.265ZM166.282 21.3405C166.282 23.3024 165.917 24.7362 165.188 25.6417C164.458 26.5472 163.351 27 161.867 27C160.408 27 159.327 26.6101 158.623 25.8304C157.943 25.0506 157.604 23.6546 157.604 21.6423V5.6824C157.604 2.66397 159.025 1.15476 161.867 1.15476C163.326 1.15476 164.42 1.43145 165.15 1.98483C165.905 2.53821 166.282 3.65754 166.282 5.34282V21.3405Z" fill="url(#paint0_linear_2511_323)"/>
<defs>
<linearGradient id="paint0_linear_2511_323" x1="-2" y1="13" x2="169" y2="13" gradientUnits="userSpaceOnUse">
<stop stop-color="#A20FC6"/>
<stop offset="1" stop-color="#2388E2"/>
</linearGradient>
</defs>
</svg>
