<svg width="26" height="27" viewBox="0 0 26 27" fill="none" xmlns="http://www.w3.org/2000/svg">
<path d="M17.6925 1.48486H7.67258C3.32025 1.48486 0.725586 4.07823 0.725586 8.42839V18.4314C0.725586 22.7935 3.32025 25.3869 7.67258 25.3869H17.6806C22.0329 25.3869 24.6275 22.7935 24.6275 18.4433V8.42839C24.6395 4.07823 22.0448 1.48486 17.6925 1.48486ZM9.81287 18.4553C9.81287 19.6384 8.84436 20.6065 7.66062 20.6065C6.47688 20.6065 5.50837 19.6384 5.50837 18.4553C5.50837 17.2721 6.47688 16.3041 7.66062 16.3041H8.61718C9.27481 16.3041 9.81287 16.8419 9.81287 17.4992V18.4553ZM9.81287 9.37252C9.81287 10.0298 9.27481 10.5676 8.61718 10.5676H7.66062C6.47688 10.5676 5.50837 9.59959 5.50837 8.41644C5.50837 7.23329 6.47688 6.26526 7.66062 6.26526C8.84436 6.26526 9.81287 7.23329 9.81287 8.41644V9.37252ZM15.2533 14.9297C15.2533 15.5153 14.775 16.0053 14.1772 16.0053H11.176C10.5901 16.0053 10.0998 15.5273 10.0998 14.9297V11.93C10.0998 11.3444 10.5781 10.8544 11.176 10.8544H14.1772C14.7631 10.8544 15.2533 11.3325 15.2533 11.93V14.9297ZM17.7045 20.6065C16.5207 20.6065 15.5522 19.6384 15.5522 18.4553V17.4992C15.5522 16.8419 16.0903 16.3041 16.7479 16.3041H17.7045C18.8882 16.3041 19.8567 17.2721 19.8567 18.4553C19.8567 19.6384 18.8882 20.6065 17.7045 20.6065ZM17.7045 10.5676H16.7479C16.0903 10.5676 15.5522 10.0298 15.5522 9.37252V8.41644C15.5522 7.23329 16.5207 6.26526 17.7045 6.26526C18.8882 6.26526 19.8567 7.23329 19.8567 8.41644C19.8567 9.59959 18.8882 10.5676 17.7045 10.5676Z" fill="white"/>
</svg>
